<?xml version="1.0" encoding="UTF-8"?>
<svg width="28px" height="28px" viewBox="0 0 28 28" version="1.1" xmlns="http://www.w3.org/2000/svg" xmlns:xlink="http://www.w3.org/1999/xlink">
    <title>Group 3</title>
    <defs>
        <linearGradient x1="58.9508296%" y1="-24.7474463%" x2="32.9109837%" y2="106.740605%" id="linearGradient-1">
            <stop stop-color="#F05A24" offset="0%"></stop>
            <stop stop-color="#F05D24" offset="20%"></stop>
            <stop stop-color="#F58E16" offset="32%"></stop>
            <stop stop-color="#FDDB00" offset="52%"></stop>
            <stop stop-color="#EAD707" offset="55%"></stop>
            <stop stop-color="#AACA1F" offset="65%"></stop>
            <stop stop-color="#78C031" offset="75%"></stop>
            <stop stop-color="#54B83F" offset="83%"></stop>
            <stop stop-color="#3EB447" offset="90%"></stop>
            <stop stop-color="#36B24A" offset="94%"></stop>
        </linearGradient>
        <linearGradient x1="17.8919182%" y1="74.1623826%" x2="79.4303797%" y2="41.6183298%" id="linearGradient-2">
            <stop stop-color="#CF4F27" offset="0%"></stop>
            <stop stop-color="#D95226" stop-opacity="0.69" offset="32%"></stop>
            <stop stop-color="#F05A24" stop-opacity="0" offset="100%"></stop>
        </linearGradient>
        <linearGradient x1="42.3856856%" y1="13.6472946%" x2="48.0513492%" y2="44.9098196%" id="linearGradient-3">
            <stop stop-color="#76933C" offset="0%"></stop>
            <stop stop-color="#2E9C48" stop-opacity="0" offset="100%"></stop>
        </linearGradient>
        <linearGradient x1="27.1632448%" y1="26.4959736%" x2="59.2223154%" y2="67.464422%" id="linearGradient-4">
            <stop stop-color="#1687C8" offset="0%"></stop>
            <stop stop-color="#1687C8" offset="29%"></stop>
            <stop stop-color="#1688C7" offset="30%"></stop>
            <stop stop-color="#22979A" offset="46%"></stop>
            <stop stop-color="#2AA377" offset="61%"></stop>
            <stop stop-color="#31AB5E" offset="76%"></stop>
            <stop stop-color="#35B04F" offset="89%"></stop>
            <stop stop-color="#36B24A" offset="100%"></stop>
        </linearGradient>
        <linearGradient x1="39.7283334%" y1="32.15311%" x2="79.9764963%" y2="101.881978%" id="linearGradient-5">
            <stop stop-color="#36B24A" stop-opacity="0" offset="0%"></stop>
            <stop stop-color="#2DAF4A" stop-opacity="0.21" offset="14%"></stop>
            <stop stop-color="#1AA84A" stop-opacity="0.63" offset="46%"></stop>
            <stop stop-color="#0EA44A" stop-opacity="0.9" offset="68%"></stop>
            <stop stop-color="#09A24A" offset="80%"></stop>
        </linearGradient>
        <linearGradient x1="125.928511%" y1="89.5596384%" x2="2.05628642%" y2="10.4695246%" id="linearGradient-6">
            <stop stop-color="#0EAB4B" offset="26%"></stop>
            <stop stop-color="#10A366" stop-opacity="0.78" offset="39%"></stop>
            <stop stop-color="#148FAB" stop-opacity="0.23" offset="67%"></stop>
            <stop stop-color="#1687C8" stop-opacity="0" offset="78%"></stop>
        </linearGradient>
        <linearGradient x1="125.928511%" y1="89.5596384%" x2="2.05628642%" y2="10.4695246%" id="linearGradient-7">
            <stop stop-color="#038A45" offset="26%"></stop>
            <stop stop-color="#088968" stop-opacity="0.73" offset="41%"></stop>
            <stop stop-color="#1587C2" stop-opacity="0.05" offset="76%"></stop>
            <stop stop-color="#1687C8" stop-opacity="0" offset="78%"></stop>
        </linearGradient>
        <linearGradient x1="66.2254233%" y1="107.059335%" x2="46.4145545%" y2="26.5204965%" id="linearGradient-8">
            <stop stop-color="#FDDB00" offset="0%"></stop>
            <stop stop-color="#FDD901" offset="34%"></stop>
            <stop stop-color="#FCD104" offset="52%"></stop>
            <stop stop-color="#FAC308" offset="67%"></stop>
            <stop stop-color="#F8B00F" offset="79%"></stop>
            <stop stop-color="#F69818" offset="90%"></stop>
            <stop stop-color="#F38020" offset="98%"></stop>
        </linearGradient>
        <linearGradient x1="76.2960548%" y1="18.1656727%" x2="38.3436583%" y2="63.0820277%" id="linearGradient-9">
            <stop stop-color="#CF4F27" offset="0%"></stop>
            <stop stop-color="#D75226" stop-opacity="0.75" offset="18%"></stop>
            <stop stop-color="#E05525" stop-opacity="0.48" offset="38%"></stop>
            <stop stop-color="#E75725" stop-opacity="0.27" offset="58%"></stop>
            <stop stop-color="#EC5924" stop-opacity="0.12" offset="75%"></stop>
            <stop stop-color="#EF5A24" stop-opacity="0.03" offset="90%"></stop>
            <stop stop-color="#F05A24" stop-opacity="0" offset="100%"></stop>
        </linearGradient>
        <linearGradient x1="4.5587066%" y1="29.2375858%" x2="72.7272727%" y2="78.854646%" id="linearGradient-10">
            <stop stop-color="#67BB46" offset="0%"></stop>
            <stop stop-color="#A9D033" offset="38%"></stop>
            <stop stop-color="#CBDB2A" offset="56%"></stop>
            <stop stop-color="#D8D91F" offset="71%"></stop>
            <stop stop-color="#FAD502" offset="98%"></stop>
            <stop stop-color="#FDD500" offset="100%"></stop>
        </linearGradient>
        <linearGradient x1="4.5587066%" y1="29.2375858%" x2="72.7272727%" y2="78.854646%" id="linearGradient-11">
            <stop stop-color="#029347" offset="0%"></stop>
            <stop stop-color="#3DA83E" stop-opacity="0.7" offset="17%"></stop>
            <stop stop-color="#70BA37" stop-opacity="0.45" offset="34%"></stop>
            <stop stop-color="#98C931" stop-opacity="0.25" offset="51%"></stop>
            <stop stop-color="#B4D32D" stop-opacity="0.11" offset="67%"></stop>
            <stop stop-color="#C5D92B" stop-opacity="0.03" offset="84%"></stop>
            <stop stop-color="#CBDB2A" stop-opacity="0" offset="100%"></stop>
        </linearGradient>
    </defs>
    <g id="Mobile_Reports-IA-and-listing" stroke="none" stroke-width="1" fill="none" fill-rule="evenodd">
        <g id="01.01.00_Mobile_Report-IA_Org-selection" transform="translate(-16.000000, -24.000000)">
            <g id="Group-3" transform="translate(16.000000, 24.000000)">
                <g id="product-logo-copy"></g>
                <g id="Group-2" transform="translate(2.000000, 5.000000)">
                    <path d="M11.9228408,2.29821382 C12.3357441,2.58724608 12.8776795,2.97047188 13.3176795,3.31627833 C19.0428408,0.308536398 22.6725182,5.29305253 19.1241311,8.49434285 C18.6643515,8.89440135 18.1604511,9.24072462 17.6221957,9.52660091 C15.8157441,10.5498267 13.1370344,11.958859 12.5254215,14.1717622 C12.2054215,15.3330525 12.5602602,16.7072461 13.5254215,17.434988 C14.2583247,17.9885364 15.2028408,18.1059558 16.0699376,17.9046654 C19.3615505,17.2143428 20.2712279,13.7020848 19.2880021,10.951117 L19.2609053,10.9678912 C19.7380663,10.667516 20.196149,10.3378516 20.6325182,9.98079446 C28.4712279,3.51111704 20.9267118,-3.76114102 11.9228408,2.29821382 Z M17.547357,11.951117 C17.8647763,15.1769235 14.5280021,16.9833751 13.2557441,16.0220848 C11.983486,15.0607945 15.1344537,13.2453106 16.7860666,12.3601493 L17.547357,11.951117 Z" id="Shape" fill="url(#linearGradient-1)"></path>
                    <path d="M17.223486,2.4169235 L17.223486,0.12918156 C15.6028408,0.362729947 13.7938086,1.04531059 11.9228408,2.30466543 C12.3357441,2.59369769 12.8776795,2.9769235 13.3176795,3.32272995 C14.7860666,2.54466543 16.1150989,2.30079446 17.223486,2.4169235 Z" id="Path" fill="url(#linearGradient-2)"></path>
                    <path d="M19.2918731,10.9472461 L17.547357,11.951117 C17.5974163,12.4386584 17.5593918,12.9312286 17.4350989,13.4053106 L17.4350989,17.3859558 C19.5770344,16.1485364 20.1499376,13.2904719 19.2918731,10.9472461 Z" id="Path" fill="url(#linearGradient-3)"></path>
                    <path d="M13.547357,3.49434285 C13.0209053,3.0801493 12.5150989,2.64272995 11.9602602,2.26724608 C2.50477631,-4.15339909 -5.40490111,4.43498801 4.73445373,11.0130525 C4.98390777,10.3450359 5.2859292,9.69784706 5.63767953,9.07756866 C0.72026018,6.02337511 4.57574405,0.0956331726 10.6105828,3.31627833 C11.0338086,3.51756866 15.7718731,6.33950414 16.9783247,9.8969235 C17.4699376,9.61950414 17.979615,9.35240737 18.4699376,9.01563317 C17.5344537,7.3201493 15.5615505,5.13305253 13.547357,3.49434285 Z" id="Path" fill="url(#linearGradient-4)"></path>
                    <path d="M16.0570344,5.84531059 C15.9912279,5.91369769 15.9280021,5.98079446 15.8557441,6.04272995 C15.7615505,6.12272995 15.663486,6.19885898 15.5628408,6.27111704 C15.4621957,6.34337511 15.3576795,6.41434285 15.2518731,6.48272995 L14.9409053,6.68789124 L14.9254215,6.69821382 C15.8054215,7.63885898 16.583486,8.72402027 16.9783247,9.89047188 C17.4699376,9.61305253 17.979615,9.34595575 18.4699376,9.00918156 C17.9344537,8.0517622 17.0738086,6.93305253 16.0570344,5.84531059 Z" id="Path" fill="url(#linearGradient-5)"></path>
                    <path d="M3.53574405,6.5885364 L3.53574405,6.5885364 C3.34109301,6.76038574 3.13216675,6.91535378 2.91122792,7.0517622 C2.68929244,7.19240737 2.45961502,7.32143962 2.23122792,7.45305253 C2.11767953,7.51756866 2.00413115,7.58208479 1.89187308,7.6517622 C1.83638921,7.68531059 1.78219566,7.7201493 1.72542147,7.75240737 C1.66864728,7.78466543 1.61187308,7.81950414 1.55638921,7.85563317 C1.50090534,7.8917622 1.4183247,7.95369769 1.35380857,8.0001493 C2.11638921,9.0117622 3.22477631,10.0336977 4.73058276,11.0130525 C4.9800368,10.3450359 5.28205824,9.69784706 5.63380857,9.07756866 C4.47509889,8.35627833 3.80542147,7.47369769 3.53574405,6.5885364 Z" id="Path" fill="url(#linearGradient-6)"></path>
                    <path d="M3.53574405,6.5885364 L3.53574405,6.5885364 C3.34109301,6.76038574 3.13216675,6.91535378 2.91122792,7.0517622 C2.68929244,7.19240737 2.45961502,7.32143962 2.23122792,7.45305253 C2.11767953,7.51756866 2.00413115,7.58208479 1.89187308,7.6517622 C1.83638921,7.68531059 1.78219566,7.7201493 1.72542147,7.75240737 C1.66864728,7.78466543 1.61187308,7.81950414 1.55638921,7.85563317 C1.50090534,7.8917622 1.4183247,7.95369769 1.35380857,8.0001493 C2.11638921,9.0117622 3.22477631,10.0336977 4.73058276,11.0130525 C4.9800368,10.3450359 5.28205824,9.69784706 5.63380857,9.07756866 C4.47509889,8.35627833 3.80542147,7.47369769 3.53574405,6.5885364 Z" id="Path" fill="url(#linearGradient-7)"></path>
                    <path d="M7.15380857,9.93563317 C7.19122792,9.85434285 7.2299376,9.77434285 7.26735695,9.69821382 C8.19122792,7.78337511 10.1447763,5.63240737 12.0067118,4.20143962 C11.9163892,4.1369235 11.7305828,4.00402027 11.6428408,3.94337511 C11.3244118,3.71799484 10.9902202,3.51575505 10.6428408,3.33821382 C9.31509889,4.42208479 7.8699376,5.87627833 6.95638921,7.0685364 C5.73961502,8.65821382 4.24671179,10.6814396 4.24671179,13.3085364 C4.24671179,15.4246654 5.3499376,17.3756332 7.85961502,17.9007945 C8.73187308,18.1020848 9.75380857,17.9846654 10.4867118,17.431117 C11.4505828,16.7033751 11.8299376,15.3175687 11.4880021,14.1678912 C10.8028408,11.8917622 7.15380857,9.93563317 7.15380857,9.93563317 Z M10.7744537,15.9343428 C9.72800212,17.0324074 6.58735695,15.5007945 6.39767953,12.8169235 C6.3766374,12.5421122 6.39840214,12.2657 6.46219566,11.9975687 C6.99122792,12.2582138 11.9602602,14.6762783 10.7744537,15.9291816 L10.7744537,15.9343428 Z" id="Shape" fill="url(#linearGradient-8)"></path>
                    <path d="M8.19380857,5.90208479 C8.35810964,6.02939661 8.52413115,6.1545579 8.69187308,6.27756866 C8.85961502,6.40057941 9.02950749,6.51928909 9.2015505,6.63369769 C9.24284083,6.66208479 9.28671179,6.68789124 9.33058276,6.71498801 C10.141466,5.79315989 11.0374758,4.9498566 12.0067118,4.19627833 C11.9163892,4.1317622 11.7305828,3.99885898 11.6428408,3.93821382 C11.3244118,3.71283355 10.9902202,3.51059376 10.6428408,3.33305253 C9.72475888,4.09166227 8.85831823,4.91068577 8.04929244,5.78466543 C8.09703437,5.82466543 8.14477631,5.86466543 8.19380857,5.90208479 Z" id="Path" fill="url(#linearGradient-9)"></path>
                    <path d="M7.15509889,9.93563317 C6.85843967,10.5999847 6.62640242,11.2913434 6.46219566,12.0001493 C6.74090534,12.1291816 8.30606663,12.9033751 9.5099376,13.7666009 L11.3305828,13.7666009 C10.3809053,11.6646654 7.15509889,9.93563317 7.15509889,9.93563317 Z" id="Path" fill="url(#linearGradient-10)"></path>
                    <path d="M7.15509889,9.93563317 C6.85843967,10.5999847 6.62640242,11.2913434 6.46219566,12.0001493 C6.74090534,12.1291816 8.30606663,12.9033751 9.5099376,13.7666009 L11.3305828,13.7666009 C10.3809053,11.6646654 7.15509889,9.93563317 7.15509889,9.93563317 Z" id="Path" fill="url(#linearGradient-11)"></path>
                </g>
            </g>
        </g>
    </g>
</svg>