<svg xmlns="http://www.w3.org/2000/svg" width="32" height="32" viewBox="0 0 32 32">
    <path fill="#79BB43" fill-rule="nonzero" d="M10.458 17.298c1.08-2.24 3.014-4.488 5.19-6.16-.105-.076-.209-.15-.312-.221a11.24 11.24 0 0 0-1.246-.779c-1.553 1.274-2.925 2.698-3.995 4.092-1.422 1.857-3.163 4.967-3.17 7.294-.01 2.473 1.386 4.754 4.318 5.37 1.02.235 2.116.096 2.972-.55 1.128-.85 1.545-2.464 1.171-3.815-.57-2.053-2.88-3.702-4.696-4.74-.349.765-.68 1.735-.77 2.368 1.676.888 6.252 3.3 4.61 4.54-1.522 1.147-5.615-.629-5.027-4.58.102-.766.533-1.973.955-2.819zm12.765-1.075c-1.094-1.975-3.068-4.257-5.424-6.172A34.732 34.732 0 0 0 15.9 8.653c-11.028-7.334-19.928 2.1-8.744 9.925.286-.754.646-1.52 1.06-2.237-5.058-3.692-1.112-10.41 5.916-6.65.494.234 1.015.58 1.44.878.141.099.284.201.425.306 2.285 1.674 4.358 4.021 5.504 6.35.573-.325 1.145-.637 1.721-1.002zm-.655.879c-2.112 1.195-5.242 2.843-5.958 5.427-.375 1.351.042 2.965 1.17 3.815.857.646 1.954.785 2.974.55 3.848-.808 5.048-4.494 3.898-7.71-.69.434-1.411.816-2.126 1.205.372 3.768-3.573 5.428-5.06 4.307-1.499-1.13 2.195-3.246 4.126-4.282 1.569-.841 3.092-1.625 4.496-2.784 9.16-7.56.712-15.88-9.71-9.161.535.373 1.066.767 1.58 1.171 6.693-3.517 10.511 2.513 6.367 6.256-.547.496-1.122.846-1.757 1.206z"/>
</svg>
