<svg xmlns="http://www.w3.org/2000/svg" xmlns:xlink="http://www.w3.org/1999/xlink" width="16" height="16" viewBox="0 0 16 16">
    <defs>
        <path id="a" d="M12.718 3.282a.964.964 0 0 0-1.363 0L8 6.637 4.645 3.282a.964.964 0 1 0-1.363 1.363L6.637 8l-3.355 3.355a.964.964 0 1 0 1.363 1.363L8 9.363l3.355 3.355a.964.964 0 1 0 1.363-1.363L9.363 8l3.355-3.355a.964.964 0 0 0 0-1.363z"/>
    </defs>
    <g fill="none" fill-rule="evenodd">
        <mask id="b" fill="#fff">
            <use xlink:href="#a"/>
        </mask>
        <use fill="#FFF" fill-rule="nonzero" xlink:href="#a"/>
        <g fill="#b3bac5" mask="url(#b)">
            <path d="M0 0h16v16H0z"/>
        </g>
    </g>
</svg>
