<svg xmlns="http://www.w3.org/2000/svg" xmlns:xlink="http://www.w3.org/1999/xlink" width="24" height="24" viewBox="0 0 24 24">
    <defs>
        <path id="a" d="M18.295 5.705a.997.997 0 0 0-1.41 0L12 10.59 7.115 5.705a.997.997 0 1 0-1.41 1.41L10.59 12l-4.885 4.885a.997.997 0 0 0 1.41 1.41L12 13.41l4.885 4.885a.997.997 0 0 0 1.41-1.41L13.41 12l4.885-4.885a.997.997 0 0 0 0-1.41z"/>
    </defs>
    <g fill="none" fill-rule="evenodd">
        <mask id="b" fill="#fff">
            <use xlink:href="#a"/>
        </mask>
        <use fill="#000" fill-rule="nonzero" xlink:href="#a"/>
        <g fill="#091E42" mask="url(#b)">
            <path d="M0 0h24v24H0z"/>
        </g>
    </g>
</svg>
