<?xml version="1.0" encoding="UTF-8"?>
<svg width="24px" height="24px" viewBox="0 0 24 24" version="1.1" xmlns="http://www.w3.org/2000/svg" xmlns:xlink="http://www.w3.org/1999/xlink">
    <title>Group 10</title>
    <g id="Mobile_Reports-IA-and-listing" stroke="none" stroke-width="1" fill="none" fill-rule="evenodd">
        <g id="02.02.00_Mobile_Report-listing_sort-by" transform="translate(-16.000000, -40.000000)">
            <g id="Group-10" transform="translate(16.000000, 40.000000)">
                <rect id="Rectangle" x="0" y="0" width="24" height="24"></rect>
                <g id="bars" transform="translate(4.000000, 6.000000)" fill="#091E42">
                    <path d="M0.8,2 L15.2,2 C15.6418278,2 16,1.55228475 16,1 C16,0.44771525 15.6418278,0 15.2,0 L0.8,0 C0.3581722,0 0,0.44771525 0,1 C0,1.55228475 0.3581722,2 0.8,2 Z M15.2,10 L0.8,10 C0.3581722,10 0,10.4477153 0,11 C0,11.5522847 0.3581722,12 0.8,12 L15.2,12 C15.6418278,12 16,11.5522847 16,11 C16,10.4477153 15.6418278,10 15.2,10 Z M15.2,5 L0.8,5 C0.3581722,5 0,5.44771525 0,6 C0,6.55228475 0.3581722,7 0.8,7 L15.2,7 C15.6418278,7 16,6.55228475 16,6 C16,5.44771525 15.6418278,5 15.2,5 Z" id="Shape"></path>
                </g>
            </g>
        </g>
    </g>
</svg>