<svg width="24" height="24" viewBox="0 0 24 24" xmlns="http://www.w3.org/2000/svg" xmlns:xlink="http://www.w3.org/1999/xlink">
    <defs>
        <path d="M5 17a2 2 0 1 1 0 4 2 2 0 0 1 0-4zm7 0a2 2 0 1 1 0 4 2 2 0 0 1 0-4zm7 0a2 2 0 1 1 0 4 2 2 0 0 1 0-4zM5 10a2 2 0 1 1 0 4 2 2 0 0 1 0-4zm7 0a2 2 0 1 1 0 4 2 2 0 0 1 0-4zm7 0a2 2 0 1 1 0 4 2 2 0 0 1 0-4zM5 3a2 2 0 1 1 0 4 2 2 0 0 1 0-4zm7 0a2 2 0 1 1 0 4 2 2 0 0 1 0-4zm7 0a2 2 0 1 1 0 4 2 2 0 0 1 0-4z" id="a"/>
    </defs>
    <g fill="none" fill-rule="evenodd">
        <mask id="b" fill="#fff">
            <use xlink:href="#a"/>
        </mask>
        <use fill="#FFF" xlink:href="#a"/>
        <g mask="url(#b)" fill="#091E42">
            <path d="M0 0h24v24H0z"/>
        </g>
    </g>
</svg>
