<?xml version="1.0" encoding="UTF-8"?>
<svg width="20px" height="21px" viewBox="0 0 20 21" version="1.1" xmlns="http://www.w3.org/2000/svg" xmlns:xlink="http://www.w3.org/1999/xlink">
    <title>Atoms/Icons/24/data_connects/white</title>
    <g id="Left-navigation" stroke="none" stroke-width="1" fill="none" fill-rule="evenodd">
        <g id="01.03.00a_dashboard-expanded" transform="translate(-10.000000, -642.000000)">
            <g id="Group" transform="translate(8.000000, 640.000000)">
                <rect id="Rectangle" x="0" y="0" width="24" height="24"></rect>
                <g id="Group-8" transform="translate(2.000000, 2.250000)">
                    <g id="Atoms/Icons/24/refresh" transform="translate(1.860000, 0.666667)" fill="#FFFFFF" fill-rule="nonzero">
                        <path d="M15.3908333,12.3841667 C15.8827868,12.3989094 16.2752991,12.7995148 16.28,13.2916667 L16.28,13.2916667 L16.28,17.4166667 C16.28,17.9229277 15.8695944,18.3333333 15.3633333,18.3333333 C14.8570723,18.3333333 14.4466667,17.9229277 14.4466667,17.4166667 L14.4466667,17.4166667 L14.4466667,15.7941667 C12.4170428,17.718343 9.66134966,18.5790863 6.97337215,18.2343873 L6.973822,16.3878577 C9.32070488,16.766068 11.7485046,15.983431 13.4383333,14.2175 L13.4383333,14.2175 L11.2383333,14.2175 C10.7320723,14.2175 10.3216667,13.8070943 10.3216667,13.3008333 C10.3216667,12.7945723 10.7320723,12.3841667 11.2383333,12.3841667 L11.2383333,12.3841667 Z M17.0014794,6.82094696 C17.2024263,7.57998052 17.3066667,8.36794986 17.3066667,9.16666667 C17.3066667,9.438119 17.188675,9.6820129 17.001181,9.84985889 Z M8.14,0 C8.42849301,0 8.71558389,0.0135994346 9.00041555,0.0404432907 L9.00089731,1.91199066 C6.7503251,1.64602238 4.45825221,2.43559094 2.84166667,4.125 L2.84166667,4.125 L5.04166667,4.125 C5.54792769,4.125 5.95833333,4.53540565 5.95833333,5.04166667 C5.95833333,5.54792769 5.54792769,5.95833333 5.04166667,5.95833333 L5.04166667,5.95833333 L0.916666667,5.95833333 C0.410405646,5.95833333 0,5.54792769 0,5.04166667 L0,5.04166667 L0,0.916666667 C0,0.410405646 0.410405646,0 0.916666667,0 C1.42292769,0 1.83333333,0.410405646 1.83333333,0.916666667 L1.83333333,0.916666667 L1.83333333,2.53916667 C3.53236609,0.915671132 5.79002018,0.00670284336 8.14,0 Z" id="Mask"></path>
                    </g>
                    <g id="Group-6" transform="translate(0.000000, 8.000000)">
                        <rect id="Rectangle" stroke="#FFFFFF" x="0.5" y="0.5" width="7" height="10.9166667" rx="1"></rect>
                        <path d="M2.54427408,4.98143926 C2.34201821,4.87118736 2.2628746,4.77390626 2.17933413,4.54691704 C2.04303126,4.15130725 2.1309686,3.64544555 2.39038374,3.37305848 L2.53548035,3.22389414 L4.0963681,3.22389414 C5.51655611,3.22389414 5.67044645,3.23686495 5.80235246,3.34063145 C6.22005482,3.67787258 6.22005482,4.58582948 5.80235246,4.92307061 C5.67044645,5.02683711 5.50776238,5.03980792 4.18430544,5.05277874 C3.02792944,5.06574955 2.67618009,5.05277874 2.54427408,4.98143926 Z" id="Path" fill="#FFFFFF" fill-rule="nonzero"></path>
                        <path d="M2.54427408,8.64810593 C2.34201821,8.53785402 2.2628746,8.44057293 2.17933413,8.2135837 C2.04303126,7.81797391 2.1309686,7.31211222 2.39038374,7.03972515 L2.53548035,6.8905608 L4.0963681,6.8905608 C5.51655611,6.8905608 5.67044645,6.90353161 5.80235246,7.00729812 C6.22005482,7.34453925 6.22005482,8.25249614 5.80235246,8.58973727 C5.67044645,8.69350378 5.50776238,8.70647459 4.18430544,8.7194454 C3.02792944,8.73241621 2.67618009,8.7194454 2.54427408,8.64810593 Z" id="Path" fill="#FFFFFF" fill-rule="nonzero"></path>
                    </g>
                    <g id="Group-6" transform="translate(12.000000, 0.000000)">
                        <rect id="Rectangle" stroke="#FFFFFF" x="0.5" y="0.5" width="7" height="10.9166667" rx="1"></rect>
                        <path d="M2.54427408,4.98143926 C2.34201821,4.87118736 2.2628746,4.77390626 2.17933413,4.54691704 C2.04303126,4.15130725 2.1309686,3.64544555 2.39038374,3.37305848 L2.53548035,3.22389414 L4.0963681,3.22389414 C5.51655611,3.22389414 5.67044645,3.23686495 5.80235246,3.34063145 C6.22005482,3.67787258 6.22005482,4.58582948 5.80235246,4.92307061 C5.67044645,5.02683711 5.50776238,5.03980792 4.18430544,5.05277874 C3.02792944,5.06574955 2.67618009,5.05277874 2.54427408,4.98143926 Z" id="Path" fill="#FFFFFF" fill-rule="nonzero"></path>
                        <path d="M2.54427408,8.64810593 C2.34201821,8.53785402 2.2628746,8.44057293 2.17933413,8.2135837 C2.04303126,7.81797391 2.1309686,7.31211222 2.39038374,7.03972515 L2.53548035,6.8905608 L4.0963681,6.8905608 C5.51655611,6.8905608 5.67044645,6.90353161 5.80235246,7.00729812 C6.22005482,7.34453925 6.22005482,8.25249614 5.80235246,8.58973727 C5.67044645,8.69350378 5.50776238,8.70647459 4.18430544,8.7194454 C3.02792944,8.73241621 2.67618009,8.7194454 2.54427408,8.64810593 Z" id="Path" fill="#FFFFFF" fill-rule="nonzero"></path>
                    </g>
                </g>
            </g>
        </g>
    </g>
</svg>