<svg width="24" height="24" viewBox="0 0 24 24" xmlns="http://www.w3.org/2000/svg" xmlns:xlink="http://www.w3.org/1999/xlink">
    <defs>
        <path d="M12.5 3a1 1 0 0 1 1 1v6.5H20a1 1 0 0 1 1 1v1a1 1 0 0 1-1 1h-6.5V20a1 1 0 0 1-1 1h-1a1 1 0 0 1-1-1v-6.5H4a1 1 0 0 1-1-1v-1a1 1 0 0 1 1-1h6.5V4a1 1 0 0 1 1-1h1z" id="251ixreffa"/>
    </defs>
    <g fill="none" fill-rule="evenodd">
        <mask id="q61exthxdb" fill="#fff">
            <use xlink:href="#251ixreffa"/>
        </mask>
        <use fill="#006CC7" xlink:href="#251ixreffa"/>
        <g mask="url(#q61exthxdb)" fill="#091E42">
            <path d="M0 0h24v24H0z"/>
        </g>
    </g>
</svg>
