<?xml version="1.0" encoding="UTF-8"?>
<svg width="19px" height="18px" viewBox="0 0 19 18" version="1.1" xmlns="http://www.w3.org/2000/svg" xmlns:xlink="http://www.w3.org/1999/xlink">
    <title>Atoms/Icons/24/graph_bar_and_box</title>
    <defs>
        <path d="M9.5,17 L7.5,17 L7.5,10 L9.5,10 L9.5,17 Z M13.5,17 L11.5,17 L11.5,7 L13.5,7 L13.5,17 Z M17.5,17 L15.5,17 L15.5,13 L17.5,13 L17.5,17 Z M20,19.1 L5,19.1 L5,5 L20,5 L20,19.1 Z M20,3 L5,3 C3.9,3 3,3.9 3,5 L3,19 C3,20.1 3.9,21 5,21 L20,21 C21.1,21 22,20.1 22,19 L22,5 C22,3.9 21.1,3 20,3 Z" id="path-1"></path>
    </defs>
    <g id="Left-navigation" stroke="none" stroke-width="1" fill="none" fill-rule="evenodd">
        <g id="01.03.00a_dashboard-expanded" transform="translate(-11.000000, -603.000000)">
            <g id="Atoms/Icons/24/graph_bar_and_box" transform="translate(8.000000, 600.000000)">
                <mask id="mask-2" fill="white">
                    <use xlink:href="#path-1"></use>
                </mask>
                <use id="Mask" fill="#FFFFFF" fill-rule="nonzero" xlink:href="#path-1"></use>
                <g id="Group" mask="url(#mask-2)" fill="#091E42">
                    <g id="↳-🎨Color">
                        <rect id="grey_k-091E42" x="0" y="0" width="24" height="24"></rect>
                    </g>
                </g>
            </g>
        </g>
    </g>
</svg>