<svg width="24" height="24" viewBox="0 0 24 24" fill="none" xmlns="http://www.w3.org/2000/svg">
    <path fill-rule="evenodd" clip-rule="evenodd" d="m17.082 3.82 1.895-.362c.18-.03.27-.18.24-.36a.312.312 0 0 0-.36-.242l-2.677.542c-.09 0-.15.06-.18.12a.32.32 0 0 0-.03.241l.541 2.678c.03.15.18.27.361.24.15-.03.27-.18.24-.36l-.39-2.046a9.067 9.067 0 0 1 4.3 7.732c0 4.995-4.06 9.027-9.022 9.027-4.963 0-9.023-4.062-9.023-9.027 0-4.874 3.88-8.876 8.721-9.026a.301.301 0 0 0 0-.602c-5.173.15-9.323 4.423-9.323 9.628 0 5.627 4.872 10.17 10.617 9.568 4.482-.45 8.09-4.032 8.572-8.515.42-3.76-1.354-7.28-4.482-9.236z" fill="#091E42" stroke="#091E42" stroke-width="1.5"/>
    <mask id="2nb0uncuqa" style="mask-type:alpha" maskUnits="userSpaceOnUse" x="7" y="7" width="10" height="10">
        <path d="M12 8.563c.63 0 1.145.516 1.145 1.146A1.15 1.15 0 0 1 12 10.855a1.15 1.15 0 0 1-1.146-1.146c0-.63.516-1.146 1.146-1.146zm0 5.157c1.546 0 3.322.739 3.437 1.145v.573H8.562v-.567c.114-.412 1.89-1.151 3.437-1.151zm0-6.303A2.291 2.291 0 1 0 11.997 12 2.291 2.291 0 0 0 12 7.417zm0 5.157c-1.53 0-4.584.767-4.584 2.291v1.72h9.167v-1.72c0-1.524-3.054-2.291-4.584-2.291z" fill="#fff"/>
    </mask>
    <g mask="url(#2nb0uncuqa)">
        <path d="M12 8.564c.63 0 1.145.515 1.145 1.146A1.15 1.15 0 0 1 12 10.855a1.15 1.15 0 0 1-1.146-1.145c0-.63.516-1.146 1.146-1.146zm0 5.156c1.546 0 3.322.74 3.437 1.146v.573H8.562v-.567c.114-.413 1.89-1.152 3.437-1.152zm0-6.302A2.291 2.291 0 1 0 11.997 12 2.291 2.291 0 0 0 12 7.418zm0 5.156c-1.53 0-4.584.768-4.584 2.292v1.719h9.167v-1.72c0-1.523-3.054-2.29-4.584-2.29z" fill="#fff"/>
        <path d="M18.875 5.125H5.125v13.75h13.75V5.125z" fill="#091E42"/>
    </g>
</svg>
