<svg width="24" height="24" viewBox="0 0 24 24" xmlns="http://www.w3.org/2000/svg" xmlns:xlink="http://www.w3.org/1999/xlink">
    <defs>
        <path d="M16.099 17.657a.91.91 0 0 1 0 1.819H7.9a.91.91 0 0 1 0-1.82zM4.925 5.934c3.902-3.9 10.249-3.9 14.149 0 3.369 3.369 3.891 8.684 1.242 12.637a.909.909 0 1 1-1.511-1.013 8.125 8.125 0 0 0 1.325-3.617h-.855a.91.91 0 0 1 0-1.818h.858a8.188 8.188 0 0 0-1.727-4.21l-.619.618a.907.907 0 0 1-1.286 0 .91.91 0 0 1 0-1.286l.621-.622a8.146 8.146 0 0 0-4.174-1.742v.85a.91.91 0 0 1-1.82 0v-.858a8.15 8.15 0 0 0-4.25 1.75l.62.622A.91.91 0 1 1 6.214 8.53l-.62-.62a8.19 8.19 0 0 0-1.726 4.212h.858a.91.91 0 0 1 0 1.818H3.87a8.126 8.126 0 0 0 1.325 3.617.91.91 0 0 1-1.511 1.013c-2.649-3.953-2.127-9.268 1.24-12.637zm9.75 3.474a.91.91 0 0 1 1.287 1.286l-2.594 2.593a1.73 1.73 0 0 1-1.685 2.132 1.734 1.734 0 0 1 0-3.465c.137 0 .27.017.4.047z" id="tbu4jbpusa"/>
    </defs>
    <g fill="none" fill-rule="evenodd">
        <mask id="l3vekxam3b" fill="#fff">
            <use xlink:href="#tbu4jbpusa"/>
        </mask>
        <use fill="#FFF" fill-rule="nonzero" xlink:href="#tbu4jbpusa"/>
        <g mask="url(#l3vekxam3b)" fill="#FFF">
            <path d="M0 0h24v24H0z"/>
        </g>
    </g>
</svg>
