<?xml version="1.0" encoding="UTF-8"?>
<svg width="16px" height="20px" viewBox="0 0 16 20" version="1.1" xmlns="http://www.w3.org/2000/svg" xmlns:xlink="http://www.w3.org/1999/xlink">
    <title>Atoms/icons/24/report/dark</title>
    <g id="Left-navigation" stroke="none" stroke-width="1" fill="none" fill-rule="evenodd">
        <g id="01.03.00a_dashboard-expanded" transform="translate(-12.000000, -322.000000)">
            <g id="Atoms/icons/24/report/dark" transform="translate(8.000000, 320.000000)">
                <rect id="Rectangle" x="0" y="0" width="24" height="24"></rect>
                <g id="file-graph-(1)" transform="translate(4.000000, 2.000000)" fill="#091E42">
                    <path d="M5,8 L6,8 C6.55228475,8 7,7.55228475 7,7 C7,6.44771525 6.55228475,6 6,6 L5,6 C4.44771525,6 4,6.44771525 4,7 C4,7.55228475 4.44771525,8 5,8 Z M10.21045,10.38623 L8.53711,12.53809 L7.66895,11.75684 C7.46436272,11.5726412 7.19287197,11.48096 6.91849837,11.5034159 C6.64412477,11.5258717 6.3911542,11.6604769 6.21924,11.87549 L4.21924,14.37549 C3.99454677,14.6542897 3.93610704,15.0319647 4.06602929,15.3656359 C4.19595154,15.6993072 4.49439601,15.9380215 4.84845749,15.9914703 C5.20251896,16.044919 5.55813055,15.9049404 5.78076,15.62449 L7.11865,13.95213 L7.99756,14.74313 C8.20395163,14.9289694 8.47833915,15.0205941 8.75498237,14.9960517 C9.0316256,14.9715092 9.28559777,14.8330112 9.45605,14.61374 L11.78955,11.61374 C12.1285258,11.1776836 12.0498264,10.5493958 11.61377,10.21042 C11.1777136,9.87144419 10.5494258,9.95014358 10.21045,10.3862 L10.21045,10.38623 Z M15.98755,6.93829 C15.9744665,6.69719623 15.8753453,6.4687911 15.70819,6.29456 L9.70734,0.29327 C9.62216658,0.211295601 9.52533735,0.146035382 9.41943,0.099 C9.38953,0.085 9.35843,0.07709 9.32697,0.066 C9.24100621,0.0357777408 9.15125609,0.0176607844 9.0603,0.01217 C9.03925,0.01086 9.02136,0 9,0 L3,0 C1.34389511,0.00180771165 0.00180771165,1.34389511 0,3 L0,17 C0.00180771165,18.6561049 1.34389511,19.9981923 3,20 L13,20 C14.6561049,19.9981923 15.9981923,18.6561049 16,17 L16,7 C16,6.97809 15.989,6.95984 15.98755,6.93829 Z M10,3.41406 L12.58594,6 L11,6 C10.4480122,5.99928381 10.0007162,5.55198782 10,5 L10,3.41406 Z M14,17 C13.9992838,17.5519878 13.5519878,17.9992838 13,18 L3,18 C2.44801218,17.9992838 2.00071619,17.5519878 2,17 L2,3 C2.00071619,2.44801218 2.44801218,2.00071619 3,2 L8,2 L8,5 C8.00180771,6.65610489 9.34389511,7.99819229 11,8 L14,8 L14,17 Z" id="Shape"></path>
                </g>
            </g>
        </g>
    </g>
</svg>