<svg width="24" height="24" viewBox="0 0 24 24" xmlns="http://www.w3.org/2000/svg" xmlns:xlink="http://www.w3.org/1999/xlink">
    <defs>
        <path d="M8 9c1.21 0 2.968.275 4.527.824a5.513 5.513 0 0 0-2.18 1.45A11.07 11.07 0 0 0 8 11c-2.7 0-5.8 1.29-6 2.01V14h6.984a5.532 5.532 0 0 0 0 2H0v-3c0-2.66 5.33-4 8-4zm0-9c2.21 0 4 1.79 4 4s-1.79 4-4 4-4-1.79-4-4 1.79-4 4-4zm0 2c-1.1 0-2 .9-2 2s.9 2 2 2 2-.9 2-2-.9-2-2-2z" id="tbl6s9p55a"/>
        <path d="M4.594 1.969V5.25h3.281v.656A3.938 3.938 0 1 1 3.937 1.97h.657zM3.28 3.364A2.626 2.626 0 1 0 6.48 6.563H3.28v-3.2zM6.016 0a3.828 3.828 0 0 1 3.828 3.828v.766H5.25V0h.766zm.765 1.662v1.4h1.4a2.303 2.303 0 0 0-1.4-1.4z" id="gjxirb01hc"/>
    </defs>
    <g fill="none" fill-rule="evenodd">
        <path d="M0 0h24v24H0z"/>
        <g transform="translate(3 3)">
            <mask id="zmsecarxsb" fill="#fff">
                <use xlink:href="#tbl6s9p55a"/>
            </mask>
            <use fill="#FFF" fill-rule="nonzero" xlink:href="#tbl6s9p55a"/>
            <g mask="url(#zmsecarxsb)" fill="#FFF">
                <path d="M-4-4h24v24H-4z"/>
            </g>
        </g>
        <g transform="translate(12.8 11.75)">
            <mask id="sk29egewwd" fill="#fff">
                <use xlink:href="#gjxirb01hc"/>
            </mask>
            <use fill="#979797" fill-rule="nonzero" xlink:href="#gjxirb01hc"/>
            <g mask="url(#sk29egewwd)" fill="#FFF">
                <path d="M-.656 0h10.5v10.5h-10.5z"/>
            </g>
        </g>
    </g>
</svg>
