<svg xmlns="http://www.w3.org/2000/svg" width="152" height="152" viewBox="0 0 152 152">
    <g fill="none">
        <path fill="#FFD24B" d="M25.212 46.122s-3.37-.85-3.25 3.07c.12 3.92 3.79 2.17 4.87 1.39s2.8-3.62-1.62-4.46zm9.89-15.47s-7.32 8-2.61 12.19c3.64 3.26 15-2.61 15.63-8.13.51-3.96-5.7-11.04-12.99-4.06h-.03zm106.22 14.09c-10.6-30.12-34.83-37.66-54.41-27.44-11.16 5.83-23.94 14.53-36 22.83-8.196 5.482-16.84 10.262-25.84 14.29-3.27 1.454-6.303 3.389-9 5.74-7.32 6.46-17 19.69-6.35 39.57.05.08.09.17.13.24 6.47 11.92 18.56 21.65 33 27.94l.35.16c16.36 7 35.73 9.63 53.48 6 .48-.08 1-.19 1.45-.3 4.849-1.065 9.57-2.647 14.08-4.72 11.78-5.45 20.1-13.15 25.6-22.11 11.27-18.35 10.62-41.96 3.51-62.2z"/>
        <path fill="#000" d="M57.042 61.592c-3.34-.09-1.69-.35 2.43-1.21 3.51-.73 8.16-1.89 10.66-3.68 9-6.44 18-6.58 23.1 5.54 10.78 25.68 21.29 51.26 6.62 72.53 0 0 4.11-19.74.37-30 0 0-6.87 9.38-17.32 8.69 0 0 17-22.64 9-30.42 0 0-19.39-10-17.47 8.69 0 0 2.18 12.12 6.55 18.07 0 0-7.65-.46-11.86-6.17 0 0-2.38 9.27.76 32 0 0-14.68-17.43-1.77-51.53 2.29-5.98 16.1-21.74-11.07-22.51z"/>
        <path fill="#FFF" d="M69.452 132.792c-3.14-22.69-.24-29.19-.24-29.19 2.91 3.94 7.46 5.38 10 5.9.333.026.651-.139.822-.424.172-.286.167-.645-.012-.926-3.66-6.28-5.49-16.45-5.49-16.45-2.48-19.69 15.45-14 18.16-9.89 5.74 8.84-5.06 25-8.72 30.2-.197.265-.235.615-.1.916.135.3.422.505.75.534 9.51-.34 15.65-8.72 15.65-8.72 3.74 10.29-.47 29.73-.47 29.73l-.43 4.09-29.46-2.94-.46-2.83z"/>
        <path fill="#A61426" d="M90.212 132.702c-.005 2.76-1.964 5.13-4.674 5.654-2.71.524-5.412-.944-6.446-3.504-.27-.67-.41-1.387-.41-2.11 0-3.18 2.59-9.1 5.77-9.1 1.322.141 2.508.877 3.22 2 .375.5.71 1.028 1 1.58.026.065.056.129.09.19.866 1.636 1.361 3.442 1.45 5.29z"/>
        <path fill="#D5192E" d="M89.822 131.882c0 2.592-1.726 4.867-4.222 5.566-2.496.698-5.152-.35-6.498-2.566-.27-.67-.41-1.387-.41-2.11 0-3.18 2.59-9.1 5.77-9.1 1.322.141 2.508.877 3.22 2 .375.5.71 1.028 1 1.58.026.065.056.129.09.19.622 1.403.978 2.908 1.05 4.44z"/>
        <path fill="#ED1D34" d="M89.212 130.992c0 1.53-.608 2.998-1.69 4.08-1.082 1.082-2.55 1.69-4.08 1.69-1.648.002-3.216-.709-4.3-1.95-.27-.67-.41-1.387-.41-2.11 0-3.18 2.59-9.1 5.77-9.1 1.322.141 2.508.877 3.22 2 .89 1.665 1.399 3.505 1.49 5.39z"/>
        <circle cx="78.262" cy="58.312" r="1.34" fill="#FFF"/>
        <circle cx="78.262" cy="58.312" r="1" fill="#000"/>
        <ellipse cx="82.553" cy="126.552" fill="#F47988" rx="1.51" ry="1" transform="rotate(-62.05 82.553 126.552)"/>
    </g>
</svg>
