<svg xmlns="http://www.w3.org/2000/svg" width="291" height="242" viewBox="0 0 291 242">
    <g fill="none" fill-rule="evenodd">
        <g fill-rule="nonzero">
            <g transform="translate(-575 -408) translate(575.12 407.66)">
                <path fill="#FFD14B" d="M55.01 176.737c-16.685-5.398-33.379-14.561-42.677-28.816-10.94-16.77-20.017-53.3-1.412-85.487.247 2.873.98 5.683 2.171 8.309 4.12 9.067 13.323 6.896 15.945 3.938 2.622-2.958 3.246-8.53.086-12.064-3.16-3.535-4.745-.183-3.189 1.738S27 74.057 20.71 72.587c-8.251-1.921-5.58-20.757 3.381-24.167 9.932-3.775 16.79 4.803 13.62 19.826-3.17 15.022-14.033 24.608-12.9 42.368 1.134 17.76 12.209 21.449 12.209 21.449s-5.562 11.949 9.384 25.636c14.946 13.688 13.937 13.073 8.606 19.038zm17.404-1.45c.73-1.49.96-6.935 2.997-9.27 2.036-2.333 3.737-3.294.788-4.37-2.95-1.076-4.736-1.92-6.042-3.938-1.306-2.017-3.055-4.658-2.718-3.18 0 0 4.303 5.764 4.86 11.133.319 3.298.108 6.625-.624 9.855 0 0 0 1.22.74-.278v.048zm197.398-3.958c-6.647 5.533-2.766 14.072 2.882 13.918 5.648-.153 8.136-6.723 5.139-12.573-2.997-5.85-8.02-1.393-8.02-1.393v.048zm19.94-71.866c-4.735-35.78-37.152-37.538-74.161-48.42-37.01-10.883-39.91-37.058-72.568-48.161-32.658-11.104-82.01 18.326-82.01 18.326-11.402 4.734-22.01 11.187-31.458 19.134 5.84-.47 11.43 2.286 15.254 9.98 5.974 12.007-.567 26.098-2.623 30.458-2.055 4.361-6.214 14.408-7.809 23.188-1.594 8.779 6.061 15.935 8.501 18.067 2.44 2.132 13.303-5.82 18.49-10.883 5.187-5.062 16.588-10.249 19.95-11.622 3.362-1.374 11.421-5.024 15.167-8.318 3.746-3.295 6.368-4.15 10.566-6.628 4.197-2.478 3.727-9.211 15.368-11.958 11.642-2.748 16.675 5.542 19.21 7.914 2.537 2.373 4.256 5.936 2.68 8.001-1.44 1.637-1.484 4.075-.105 5.764 1.2 1.421.087 2.19 1.45 4.284 1.364 2.094.48 2.247.961 4.59.48 2.345.058 3.43-2.19 4.861-2.248 1.431-4.918 2.219-6.849 1.316-1.93-.903-8.5-3.515-8.5-3.515-1.768-1.633-2.651 3.208-1.556 6.723 1.095 3.516 6.599 7.387 8.77 9.327 2.17 1.94 8.212 2.622 18.25 2.949 8.644.278 13.38.864 16.06.96h1.171c2.354 0 7.348-2.468 11.527-2.564 4.178-.096 7.52 4.197 7.204 7.511-.317 3.314-5.274 5.994-6.119 4.246-.845-1.749 1.133-1.758 1.604-2.267.47-.51.567-2.747-.336-3.247s-3.996.087-7.78 2.123c-2.373 1.277-5.764 1.277-8.78 1.181-1.6-.09-3.203-.09-4.802 0-3.477.365-21.132 1.191-26.3 1.98-5.167.787-10.565 1.594-14.062-1.048-3.496-2.641-7.588-10.143-9.019-11.882-1.431-1.738-2.7.663-6.858 7.78-1.452 2.134-3.374 3.905-5.62 5.178-.643 4.61.692 7.223 2.181 9.048 1.864 2.277 8.04 10.566 10.23 14.715 2.242 3.863 5.23 7.243 8.789 9.942 2.17 1.47 4.11 4.217 5.59 7.079 1.523 2.906 2.5 6.068 2.881 9.327.116 2.43 0 7.588-1.095 7.684-1.095.096-1.181-2.027-1.757-5.187-.577-3.16-2.21-3.736-3.4-5.513-1.192-1.777-.452 1.2-.452 1.2s1.028 4.803-.461 4.85c-1.489.049-.682-2.324-1.921-5.57-1.456-3.29-3.515-6.277-6.07-8.808-3.4-3.89-7.076-7.531-10.999-10.893-4.466-3.602-4.399-4.236-10.566-11.19-2.7-3.166-4.642-6.909-5.676-10.94-2.55.89-5.152 1.624-7.79 2.2-4.313.826-1.297 2.017-1.297 2.017s3.967 3.102 7.233 5.532c3.266 2.43 7.252 8.366 6.724 12.574-.529 4.207-3.593 9.653-6.638 13.505-1.181 1.508-3.246 3.774-5.436 6.109 3.378.368 6.773.56 10.172.576 21.045 0 37.278 35.76 74.92 52.752 25.887 11.68 55.567 4.649 69.159-11.613 8.04-9.605 10.028-33.791 23.177-51.686 13.15-17.894 34.56-37.316 29.825-73.086v.048zm-9.604 60.34c-.894-.4-1.925-.35-2.776.135-.745.44-1.253 1.19-1.383 2.045-.11.754.157 1.514.716 2.032.558.518 1.335.728 2.079.562l2.2-.461c.472-.09.886-.374 1.142-.782.255-.409.328-.905.202-1.37-.365-1.035-1.182-1.848-2.219-2.209l.039.048z"/>
                <circle cx="139.756" cy="91.385" r="1.07" fill="#000" transform="rotate(-73.36 139.756 91.385)"/>
                <circle cx="139.407" cy="90.863" r="1.07" fill="#FFF" transform="rotate(-73.36 139.407 90.863)"/>
                <ellipse cx="205.639" cy="218.645" fill="#80640B" rx="31.371" ry="1.374"/>
                <path fill="#F97D00" d="M199.473 219.048c-.96.048-4.14.135-8.04.154h-.048c-6.887 0-15.964-.154-18.999-1.191-.223-.083-.439-.186-.644-.307-.285-.169-.544-.38-.768-.625-3.256-3.294-1.489-12.919 8.846-16.223 7.07-2.257 16.848-2.882 24.014-.519 1.418.447 2.776 1.066 4.043 1.845 2.18 1.258 3.871 3.214 4.803 5.551.146.4.272.807.375 1.22 2.209 9.375-9.02 9.894-13.582 10.095z"/>
                <path fill="#E07102" d="M199.473 219.048c-.96.048-4.14.135-8.04.154h-.048c-6.887 0-15.964-.154-18.999-1.191-.556-.2-1.057-.529-1.46-.96 2.307.547 4.689.716 7.05.499 4.323-.432 6.35-1.585 11.306-1.758 4.956-.173 8.837-.355 11.123-1.767 2.286-1.412 2.574-4.515 5.042-6.272 2.469-1.758 3.698-3.564 2.42-5.581 2.562 1.47 4.422 3.912 5.159 6.772 2.238 9.384-8.99 9.903-13.553 10.104z"/>
                <path fill="#AF5805" d="M199.473 219.048c-.96.048-4.14.135-8.04.154h-.048c-6.887 0-15.964-.154-18.999-1.191-.223-.083-.439-.186-.644-.307 1.6.317 3.23.462 4.86.432 3.583-.087 8.27-.538 10.835-.375 2.565.164 8.28.221 11.373-.528 3.39-.816 4.092-2.334 6.906-3.093 2.815-.759 4.563-.682 6.11-3.122.627-.974.914-2.13.816-3.285.146.4.271.807.374 1.22 2.248 9.375-8.98 9.894-13.543 10.095z"/>
                <path fill="#FA9646" d="M176.334 202.988c-1.326.583-2.413 1.599-3.084 2.882-.145.274-.258.564-.336.864-.394 1.49 3.842-.682 5.58-1.392 1.74-.711 3.459-2.882 2.104-3.132-1.466-.15-2.945.12-4.264.778z"/>
                <path fill="#F97D00" d="M211.114 189.8c.012.9-.148 1.793-.47 2.632-2.142 5.485-14.014 4.803-19.509 5.12-.806 0-1.71.144-2.699.25l-.643.057c-2.311.308-4.644.42-6.974.336-.49 0-.96-.086-1.45-.144l-.384-.057c-.683-.107-1.355-.274-2.008-.5l-.422-.154c-.631-.242-1.229-.565-1.777-.96-1.339-.93-2.327-2.284-2.805-3.842-2.718-7.982 14.61-12.487 14.61-12.487 7.348-2.296 12.919-2.027 16.866-.442l.51.211.288.145c.201.076.374.172.557.259.786.412 1.529.901 2.219 1.46.931.78 1.732 1.704 2.372 2.737.135.202.25.385.355.577.22.383.412.781.577 1.19.132.314.244.634.336.961.117.387.207.782.269 1.182.046.209.078.42.096.634.045.276.074.555.086.835z"/>
                <path fill="#E07102" d="M211.114 189.8c.012.9-.148 1.793-.47 2.632-2.142 5.485-14.014 4.803-19.509 5.12-.806 0-1.71.144-2.699.25-2.525.329-5.071.46-7.617.393-.49 0-.96-.086-1.45-.144l-.384-.057c-.844-.13-1.671-.35-2.469-.654-.63-.242-1.228-.565-1.777-.96 3.17 1.143 10.028.47 13.448-.423 4.36-1.143 8.058-1.104 9.922-2.391 2.016-1.464 3.585-3.46 4.534-5.764 1.46-3.016 4.11-2.948 3.256-5.686-.262-.902-.86-1.669-1.672-2.142.202.077.375.173.558.26.786.412 1.529.9 2.218 1.46.938.775 1.746 1.696 2.392 2.727.135.202.25.385.355.577.22.383.412.781.577 1.19.132.314.244.634.336.961.079.253.143.51.192.769.035.112.058.228.067.345.048.24.077.471.106.702.045.276.074.555.086.835z"/>
                <path fill="#AF5805" d="M211.114 189.8c.012.9-.148 1.793-.47 2.632-2.142 5.485-14.014 4.803-19.509 5.12-.806 0-1.71.144-2.699.25l-.643.057c-2.311.308-4.644.42-6.974.336-.49 0-.96-.086-1.45-.144l-.384-.057c-.683-.107-1.355-.274-2.008-.5 2.118.184 4.247.206 6.369.067 2.17-.134 4.524-.845 7.05-.806 2.526.038 7.502-.433 9.048-1.681 1.546-1.25 3.237-3.593 6.781-5.37 2.882-1.45 3.746-2.555 4.14-3.534.132.312.244.633.336.96.117.387.207.782.27 1.182.045.208.078.42.095.633.034.284.05.57.048.855z"/>
                <path fill="#FA9646" d="M179.782 183s-3.842 1.767-4.13 2.949c-.288 1.181 1.287.768 2.391.47 1.105-.297 4.015-2.238 5.197-2.833 1.181-.596.22-2.2-3.458-.586z"/>
                <path fill="#F97D00" d="M207.128 172.972c-1.92 6.387-10.652 4.62-15.013 4.562-3.38-.048-9.759.5-13.322-1.248-.46-.208-.888-.484-1.268-.817-.419-.361-.748-.815-.96-1.325-2.114-4.803 2.88-14.792 18.643-10.566 2.668.607 5.25 1.546 7.684 2.795 2.258 1.24 4.179 2.882 4.4 4.976.065.546.01 1.1-.164 1.623z"/>
                <path fill="#E07102" d="M207.128 172.972c-1.92 6.387-10.652 4.62-15.013 4.562-3.842-.048-11.526.663-14.59-2.065 1.295.35 2.635.505 3.976.461 3.228-.067 5.37.798 7.685 0 2.045-.845 4.198-1.4 6.397-1.652 3.073-.384 5.456-1.92 5.993-3.045.538-1.123 1.73-1.46 2.334-2.209.606-.75-.374-1.92-1.037-2.641 2.795 1.546 5.1 3.717 4.255 6.589z"/>
                <path fill="#AF5805" d="M207.128 172.972c-1.92 6.387-10.652 4.62-15.013 4.562-3.38-.048-9.759.5-13.322-1.248 1.74.359 3.507.577 5.283.653 3.938.269 7.079-.778 9.97-.557 3.9.288 6.07-1.796 8.462-1.796 1.864 0 4.294-1.384 4.803-3.218.057.541-.006 1.089-.183 1.604z"/>
                <path fill="#FA9646" d="M181.3 164.366c-.968.555-1.82 1.292-2.507 2.17-.673 1.105 1.604 0 2.507-.393.903-.394 3.506-1.922 2.881-2.142-.948-.46-2.078-.317-2.881.365z"/>
                <path fill="#F97D00" d="M202.46 157.786c-1.21 5.619-7.165 3.977-10.114 3.89-2.267-.058-6.493.346-8.933-1.143-.263-.162-.508-.352-.73-.567-.404-.394-.71-.878-.893-1.412-1.432-4.14 3.044-10.498 11.91-9.23.452.069.896.181 1.326.336 2.184.744 4.192 1.931 5.897 3.487.93.875 1.52 2.053 1.662 3.323.03.443-.013.887-.125 1.316z"/>
                <path fill="#E07102" d="M202.46 157.786c-1.21 5.619-7.165 3.977-10.114 3.89-2.517-.077-7.464.452-9.692-1.72 1.175.447 2.44.602 3.688.452 2.046-.5 3.103-.269 6.052-.336 1.68 0 3.083-1.287 4.649-1.326 2.257-.057 2.881-2.122 3.66-2.756.96-.807 1.104-1.45.172-2.834 1.31 1.155 1.913 2.915 1.585 4.63z"/>
                <path fill="#AF5805" d="M202.46 157.786c-1.21 5.619-7.165 3.977-10.114 3.89-2.267-.058-6.493.346-8.933-1.143 1.347.508 2.777.762 4.217.75 2.276-.068 4.159-.337 5.407-.375 1.249-.039 3.15-.855 3.842-.884 1.091.096 2.19-.002 3.247-.288 1.508-.442 2.305-2.363 2.45-3.266.032.442-.007.886-.116 1.316z"/>
                <path fill="#FA9646" d="M185.44 150.947c-.444.299-.823.684-1.115 1.133-.259.538 1.316-.115 1.97-.393.653-.279 1.652-1.23 1.114-1.278-.7-.067-1.4.124-1.97.538z"/>
                <path fill="#F97D00" d="M182.721 139.92c-1.69-.047-3.343-.519-4.802-1.373-.599-.326-1.148-.733-1.633-1.21-1.005-.887-1.63-2.125-1.748-3.459-.25-3.66 4.668-5.36 4.668-5.36 3.707-1.056 5.85 0 7.213 1.518v.048c.71.841 1.295 1.78 1.739 2.786.087.182.146.376.173.576.547 2.478-2.498 6.513-5.61 6.474z"/>
                <path fill="#E07102" d="M182.721 139.92c-2.372-.072-4.64-.988-6.397-2.584.865.288 2.152 1.095 3.592.96 2.2-.22 2.969-1.325 3.708-1.565 2.21-.71 3.026-1.633 3.276-3.458.28-1.074.128-2.215-.423-3.18.71.842 1.295 1.78 1.738 2.786 1.143 2.363-2.122 7.08-5.494 7.041z"/>
                <path fill="#AF5805" d="M182.721 139.92c-1.69-.047-3.343-.519-4.802-1.373.523.189 1.069.308 1.623.355 1.01.134 2.034.134 3.045 0 1.34-.387 2.565-1.092 3.573-2.056 1.24-1.152 1.884-2.808 1.748-4.495 1.921 2.92-2.075 7.608-5.187 7.57z"/>
                <path fill="#FA9646" d="M177.41 129.806s-1.172.71-1.422 1.364c-.25.653 1.777-.385 2.065-.836.288-.451.211-.75-.643-.528z"/>
                <path fill="#FFF" d="M190.405 130.785c-.307 3.314-5.273 5.994-6.118 4.246-.845-1.748 1.133-1.758 1.604-2.267.47-.509.567-2.747-.336-3.246-.903-.5-3.996.086-7.78 2.122-2.373 1.278-5.764 1.278-8.78 1.182l1.556-7.012h1.172c2.353 0 7.348-2.469 11.527-2.565 4.178-.096 7.472 4.227 7.155 7.54z"/>
            </g>
        </g>
    </g>
</svg>
