<?xml version="1.0" encoding="UTF-8"?>
<svg width="244px" height="203px" viewBox="0 0 244 203" version="1.1" xmlns="http://www.w3.org/2000/svg" xmlns:xlink="http://www.w3.org/1999/xlink">
    <!-- Generator: Sketch 59 (86127) - https://sketch.com -->
    <title>Atoms/illustration/emptystate/placeholder</title>
    <desc>Created with Sketch.</desc>
    <defs>
        <path d="M11.0351472,100.2018 C-11.1620549,84.4832789 1.36078409,61.6307393 39.149527,27.9143628 C56.7872397,9.43132803 71.5440357,0.189810662 83.4199152,0.189810662 C101.233734,0.189810662 106.444076,-0.260171814 124.620489,12.1920508 C142.796903,24.6442735 139.227131,24.7525725 168.197389,28.7320204 C197.167646,32.7114684 214.900271,40.5707291 226.198521,68.9439924 C233.730688,87.8595013 228.287515,106.546319 209.869001,125.004445 C202.994917,131.328386 200.96135,138.224146 203.768302,145.691726 C207.97873,156.893094 202.2701,166.397417 196.916833,169.536465 C191.563567,172.675512 184.354509,182.984497 155.368681,189.669796 C126.382852,196.355096 95.5462366,199.446491 53.3657688,189.669796 C25.245457,183.152 11.1308008,131.669167 14.431407,118.553071 C16.6318111,109.809007 15.4997245,103.691917 11.0351472,100.2018 Z" id="path-1"></path>
        <linearGradient x1="49.9926606%" y1="100.016254%" x2="49.9926606%" y2="-0.0618055991%" id="linearGradient-3">
            <stop stop-color="#808080" stop-opacity="0.25" offset="0%"></stop>
            <stop stop-color="#808080" stop-opacity="0.12" offset="54%"></stop>
            <stop stop-color="#808080" stop-opacity="0.1" offset="100%"></stop>
        </linearGradient>
    </defs>
    <g id="➑-☑︎-Blankout-state" stroke="none" stroke-width="1" fill="none" fill-rule="evenodd" opacity="0.7">
        <g id="08.10.01.emptystate_multi-lingula_page" transform="translate(-598.000000, -183.000000)">
            <g id="Atoms/illustration/emptystate/placeholder" transform="translate(598.000000, 183.000000)">
                <g id="Group-5">
                    <g id="Path-10" transform="translate(14.000000, 7.000000)">
                        <mask id="mask-2" fill="white">
                            <use xlink:href="#path-1"></use>
                        </mask>
                        <use id="Mask" fill="#F5F5F5" xlink:href="#path-1"></use>
                        <path d="M32.7956281,138.921062 C25.7962106,130.122304 23.6612925,117.984623 26.3908736,102.508019 C26.3908736,96.8262989 35.1778301,93.7719415 41.0979721,93.9681936 C47.0181142,94.1644458 51.987565,94.2586908 56.0063245,94.2509286 C58.9591004,94.3295759 61.3676035,93.1783519 63.2318339,90.7972565 C65.0960642,88.4161612 67.672354,82.0712846 70.9607035,71.7626269 C72.5262117,66.751606 75.2204261,64.0567269 79.0433467,63.6779895 C82.8662672,63.2992521 86.0360153,63.960578 88.5525908,65.6619671 C91.1210592,67.9357096 93.2834851,69.0725808 95.0398686,69.0725808 L97.6554917,69.0725808 C99.4541416,69.1106596 101.373499,68.4385692 103.413563,67.0563095 L110.716235,58.8618295 C115.426597,52.85871 119.094065,49.8571502 121.718638,49.8571502 C125.56412,49.6799374 128.423038,50.3113129 130.295391,51.7512765 C132.167743,53.1912402 134.087025,55.5614245 136.053236,58.8618295 L144.463707,70.9260654 C146.791513,74.2086026 149.640353,75.6579395 153.010226,75.2740761 C156.3801,74.8902127 160.413751,73.7197297 165.111178,71.7626269 C171.564086,69.0695785 176.245494,69.4404804 179.155402,72.8753327 C182.06531,76.3101851 183.594569,80.5134232 183.743178,85.4850472 C183.923373,91.4776218 185.51558,95.258039 188.519798,96.8262989 C191.524015,98.3945588 197.702268,101.237433 207.054555,105.35492 C209.743655,106.412632 211.586301,107.182921 212.582492,107.665789 C213.578684,108.148658 218.307961,137.364519 218.226738,138.921062 L221.471263,158.977611 L198.345507,195.386118 L144.463707,201.790011 L85.4219627,201.790011 L58.1136904,199.102472 L20.3634062,195.386118 C25.7965768,193.565907 28.513162,187.973016 28.513162,178.607447 C34.7583793,170.354824 37.8809879,163.266123 37.8809879,157.341346 C37.8809879,151.416568 36.185868,145.276474 32.7956281,138.921062 Z" id="Path-9" fill="#E6E6E6" opacity="0.778683036" mask="url(#mask-2)"></path>
                        <path d="M163.775654,93.2708649 C162.078541,88.3263027 163.500011,85.2483335 168.040063,84.0369575 C168.845111,80.5781439 170.802447,78.848737 173.912072,78.848737 C177.021697,78.848737 179.227227,79.8843626 180.528663,81.9556137 C181.290073,83.3227416 181.670779,84.9009445 181.670779,86.6902224 L183.007149,88.6237265 C187.287811,88.046946 190.613382,88.1896148 192.983863,89.0517327 C195.354345,89.9138507 196.966871,91.320228 197.821442,93.2708649 L163.775654,93.2708649 Z" id="Path-8" fill="#D2D2D2" mask="url(#mask-2)" transform="translate(180.452214, 86.059801) scale(-1, 1) translate(-180.452214, -86.059801) "></path>
                        <path d="M69.5914463,68.7188646 C73.9122236,68.7188646 77.5103784,71.7313845 78.2913513,75.7169687 C82.3839221,76.4766924 85.4779785,79.980251 85.4779785,84.1874536 C85.4779785,88.9504018 81.5125228,92.8115342 76.6208854,92.8115342 C72.7790088,92.8115342 69.5084458,90.4298017 68.2816352,87.1000387 C67.3036185,88.561043 65.610922,89.5261702 63.6867176,89.5261702 C60.658561,89.5261702 58.2037551,87.1359453 58.2037551,84.1874536 C58.2037551,82.1814828 59.3399858,80.4339114 61.019975,79.5216245 C60.8334435,78.8262368 60.7343532,78.0958585 60.7343532,77.3429452 C60.7343532,72.579997 64.6998089,68.7188646 69.5914463,68.7188646 Z" id="Combined-Shape" fill="#D2D2D2" mask="url(#mask-2)"></path>
                        <path d="M228.472145,145.250094 L224.076549,168.850814 L159.885689,208.413143 L80.7695969,201.77183 L46.0395306,190.777839 C61.3607787,165.327675 64.6060396,143.891887 55.7753133,126.470474 L48.7115741,115.478056 C46.0395306,106.938011 50.5571531,105.052526 55.7753133,104.136585 L67.3717764,104.136585 C72.0833425,104.456447 75.5117273,102.644776 77.6569309,98.7015715 L80.7695969,85.3047248 C83.605802,78.9865766 88.5372733,77.4070395 95.5640106,80.5661136 C102.590748,83.7251877 107.514699,83.5024269 110.335862,79.8978311 L115.938029,72.9522618 C122.576097,66.2126108 128.190147,66.2126108 132.780178,72.9522618 L139.693203,83.2348502 C141.781249,87.0767061 145.236859,88.7452889 150.060032,88.2405986 C157.294792,87.4835632 165.312005,81.338527 170.786471,89.2485146 C171.979253,91.1893607 172.575644,92.8837199 172.575644,94.3315922 C172.575644,96.5034008 173.42443,105.383958 176.853417,106.938011 C180.282403,108.492065 188.864551,106.938011 190.297715,117.007066 C199.99114,128.621211 208.776902,134.428284 216.654999,134.428284 C224.533097,134.428284 228.472145,138.035554 228.472145,145.250094 Z" fill="#DFDFDF" mask="url(#mask-2)"></path>
                        <g id="Group" mask="url(#mask-2)">
                            <g transform="translate(31.773064, 114.166400)" id="Shape">
                                <path d="M0,76.8364515 C0,76.8364515 11.2161729,57.4911329 28.1177561,51.9224409 C35.2062424,49.581619 41.3949605,45.181969 45.6266828,39.1697528 C47.6293084,36.3115429 49.3591981,33.2809424 50.7947264,30.1158371" stroke="#7B7B7B" stroke-width="2" fill="none"></path>
                                <path d="M61.5019679,26.4658041 C59.5759016,28.2837055 50.611961,30.1645764 50.611961,30.1645764 C50.611961,30.1645764 52.8135813,21.4994287 54.7368358,19.6787895 C56.6616563,17.8597969 59.7364581,17.904537 61.6045977,19.7787193 C63.4727374,21.6529016 63.4267884,24.6468115 61.5019679,26.4658041 Z" stroke="none" fill="#A5A5A5" fill-rule="nonzero"></path>
                                <path d="M56.1933356,42.2440005 C53.5615136,42.7504942 44.9884098,39.5855935 44.9884098,39.5855935 C44.9884098,39.5855935 51.6720004,33.4748164 54.3010106,32.9655849 C56.0205234,32.5949556 57.8113941,33.1593379 58.9817782,34.4407013 C60.1521624,35.7220647 60.5188042,37.5197765 59.9400635,39.1393494 C59.3613229,40.7589224 57.9278176,41.9467679 56.1933356,42.2440005 L56.1933356,42.2440005 Z" stroke="none" fill="#A5A5A5" fill-rule="nonzero"></path>
                                <path d="M37.8183819,59.2535394 C35.2877839,58.3993447 29.5236439,51.4535376 29.5236439,51.4535376 C29.5236439,51.4535376 38.4622786,49.4604167 40.9956884,50.3146114 C42.6755288,50.8373093 43.9326084,52.2052426 44.2801463,53.8887044 C44.6276842,55.5721662 44.0111095,57.3068169 42.6691793,58.4209451 C41.3272492,59.5350733 39.4706755,59.8537369 37.8183819,59.2535394 L37.8183819,59.2535394 Z" stroke="none" fill="#A5A5A5" fill-rule="nonzero"></path>
                                <path d="M37.8183819,59.2535394 C35.2877839,58.3993447 29.5236439,51.4535376 29.5236439,51.4535376 C29.5236439,51.4535376 38.4622786,49.4604167 40.9956884,50.3146114 C42.6755288,50.8373093 43.9326084,52.2052426 44.2801463,53.8887044 C44.6276842,55.5721662 44.0111095,57.3068169 42.6691793,58.4209451 C41.3272492,59.5350733 39.4706755,59.8537369 37.8183819,59.2535394 L37.8183819,59.2535394 Z" stroke="none" fill="#000000" fill-rule="nonzero" opacity="0.25"></path>
                                <path d="M20.77621,69.0586422 C18.1303291,68.6342827 11.2471024,62.7315786 11.2471024,62.7315786 C11.2471024,62.7315786 19.710547,59.2983732 22.3564279,59.7199949 C24.0681823,59.9948474 25.4993147,61.138007 26.1107313,62.7188564 C26.7221479,64.2997058 26.4209601,66.0780765 25.3206223,67.3840734 C24.2202846,68.6900703 22.4879644,69.3252814 20.77621,69.0504288 L20.77621,69.0586422 Z" stroke="none" fill="#A5A5A5" fill-rule="nonzero"></path>
                                <path d="M37.6777932,32.813761 C37.6777932,35.4256254 42.5309179,43.0011273 42.5309179,43.0011273 C42.5309179,43.0011273 47.3896661,35.4283632 47.3924779,32.8164988 C47.329025,30.2487608 45.1730141,28.1993747 42.5351355,28.1993747 C39.897257,28.1993747 37.7412461,30.2487608 37.6777932,32.8164988 L37.6777932,32.813761 Z" stroke="none" fill="#A5A5A5" fill-rule="nonzero"></path>
                                <path d="M17.9483058,44.4763383 C18.7496619,46.9677394 25.7059947,52.7828337 25.7059947,52.7828337 C25.7059947,52.7828337 28.0172743,44.1423263 27.2159182,41.6509252 C26.4146214,39.1560476 23.6878986,37.7660399 21.1256123,38.5462562 C18.563326,39.3264725 17.1357619,41.9814607 17.9370587,44.4763383 L17.9483058,44.4763383 Z" stroke="none" fill="#A5A5A5" fill-rule="nonzero"></path>
                                <path d="M61.5019679,26.4658041 C59.5759016,28.2837055 50.611961,30.1645764 50.611961,30.1645764 C50.611961,30.1645764 52.8135813,21.4994287 54.7368358,19.6787895 C56.6616563,17.8597969 59.7364581,17.904537 61.6045977,19.7787193 C63.4727374,21.6529016 63.4267884,24.6468115 61.5019679,26.4658041 Z" stroke="none" fill="#000000" fill-rule="nonzero" opacity="0.25"></path>
                                <path d="M56.1933356,42.2440005 C53.5615136,42.7504942 44.9884098,39.5855935 44.9884098,39.5855935 C44.9884098,39.5855935 51.6720004,33.4748164 54.3010106,32.9655849 C56.0205234,32.5949556 57.8113941,33.1593379 58.9817782,34.4407013 C60.1521624,35.7220647 60.5188042,37.5197765 59.9400635,39.1393494 C59.3613229,40.7589224 57.9278176,41.9467679 56.1933356,42.2440005 L56.1933356,42.2440005 Z" stroke="none" fill="#000000" fill-rule="nonzero" opacity="0.25"></path>
                                <path d="M20.77621,69.0586422 C18.1303291,68.6342827 11.2471024,62.7315786 11.2471024,62.7315786 C11.2471024,62.7315786 19.710547,59.2983732 22.3564279,59.7199949 C24.0681823,59.9948474 25.4993147,61.138007 26.1107313,62.7188564 C26.7221479,64.2997058 26.4209601,66.0780765 25.3206223,67.3840734 C24.2202846,68.6900703 22.4879644,69.3252814 20.77621,69.0504288 L20.77621,69.0586422 Z" stroke="none" fill="#000000" fill-rule="nonzero" opacity="0.25"></path>
                                <path d="M37.6777932,32.813761 C37.6777932,35.4256254 42.5309179,43.0011273 42.5309179,43.0011273 C42.5309179,43.0011273 47.3896661,35.4283632 47.3924779,32.8164988 C47.329025,30.2487608 45.1730141,28.1993747 42.5351355,28.1993747 C39.897257,28.1993747 37.7412461,30.2487608 37.6777932,32.8164988 L37.6777932,32.813761 Z" stroke="none" fill="#000000" fill-rule="nonzero" opacity="0.25"></path>
                                <path d="M17.9483058,44.4763383 C18.7496619,46.9677394 25.7059947,52.7828337 25.7059947,52.7828337 C25.7059947,52.7828337 28.0172743,44.1423263 27.2159182,41.6509252 C26.4146214,39.1560476 23.6878986,37.7660399 21.1256123,38.5462562 C18.563326,39.3264725 17.1357619,41.9814607 17.9370587,44.4763383 L17.9483058,44.4763383 Z" stroke="none" fill="#000000" fill-rule="nonzero" opacity="0.25"></path>
                                <path d="M0.562355122,76.4367323 C0.562355122,76.4367323 2.76397542,54.3262322 15.8837204,42.5673668 C21.4194502,37.6679506 25.1744201,31.1529111 26.5853384,23.9995843 C27.2264047,20.5983259 27.5464074,17.1470743 27.5414591,13.6890168" stroke="#7B7B7B" stroke-width="2" fill="none"></path>
                                <path d="M35.770961,6.32677807 C34.7671571,8.74973405 27.3553166,13.9926275 27.3553166,13.9926275 C27.3553166,13.9926275 25.7582281,5.20154089 26.762032,2.76763369 C27.8399368,0.465808869 30.5876692,-0.602066296 32.9971375,0.344430337 C35.4066058,1.29092697 36.6240384,3.91641355 35.7597139,6.30213784 L35.770961,6.32677807 Z" stroke="none" fill="#A5A5A5" fill-rule="nonzero"></path>
                                <path d="M37.7790171,22.5299029 C35.5858321,24.032957 26.4306907,24.5230238 26.4306907,24.5230238 C26.4306907,24.5230238 29.998834,16.3096137 32.192019,14.7956084 C34.3853024,13.3268762 37.3841404,13.8512284 38.9155605,15.9712317 C40.4469807,18.0912349 39.9400589,21.0165373 37.7790171,22.5299029 L37.7790171,22.5299029 Z" stroke="none" fill="#A5A5A5" fill-rule="nonzero"></path>
                                <path d="M27.9799791,45.305368 C25.3087923,45.5243923 17.1518312,41.447803 17.1518312,41.447803 C17.1518312,41.447803 24.4933773,36.1008731 27.1673759,35.8818488 C28.8962076,35.74051 30.5711547,36.5079639 31.5612807,37.895118 C32.5514067,39.2822722 32.7062879,41.0783848 31.9675822,42.6068776 C31.2288765,44.1353705 29.7088108,45.1640292 27.9799791,45.305368 L27.9799791,45.305368 Z" stroke="none" fill="#A5A5A5" fill-rule="nonzero"></path>
                                <path d="M16.4038989,61.0522003 C13.80863,61.7065353 5.0611961,59.0317014 5.0611961,59.0317014 C5.0611961,59.0317014 11.3708206,52.5513208 13.9660895,51.8969858 C16.5625396,51.2415134 19.2131005,52.7596126 19.886283,55.2877553 C20.5594655,57.815898 19.000349,60.3967279 16.4038989,61.0522003 Z" stroke="none" fill="#A5A5A5" fill-rule="nonzero"></path>
                                <path d="M16.7261155,21.4317859 C17.8142726,23.8191504 25.403255,28.823855 25.403255,28.823855 C25.403255,28.823855 26.69386,19.9862257 25.6085146,17.5988612 C24.521484,15.2105829 21.6518789,14.1325303 19.1990722,15.1909632 C16.7462654,16.2493961 15.639085,19.0435076 16.7261155,21.4317859 L16.7261155,21.4317859 Z" stroke="none" fill="#A5A5A5" fill-rule="nonzero"></path>
                            </g>
                        </g>
                    </g>
                    <path d="M0.917218599,106 C-1.3300661,99.4859347 0.552216997,95.4309566 6.56406789,93.8350656 C7.63009625,89.2783552 10.2219635,87 14.3396696,87 C18.4573757,87 21.3778968,88.3643538 23.1012331,91.0930615 C24.109478,92.8941432 24.6136004,94.9732993 24.6136004,97.3305298 L26.3831973,99.8777668 C32.0515672,99.1179047 36.4552251,99.3058594 39.5941711,100.441631 C42.733117,101.577402 44.8683934,103.430192 46,106 L0.917218599,106 Z" id="Path-8" fill="#D2D2D2"></path>
                    <path d="M177.129032,28 C179.814577,28 182.049246,30.0115369 182.521106,32.667553 C185.069485,33.1586615 187,35.4872673 187,38.2857143 C187,41.4416271 184.544787,44 181.516129,44 C179.153863,44 177.140455,42.4436006 176.368803,40.2612161 C175.771499,41.3024904 174.677631,42 173.427419,42 C171.534508,42 170,40.401017 170,38.4285714 C170,37.0495563 170.750062,35.8530883 171.848268,35.2579732 C171.715651,34.7666098 171.645161,34.2490255 171.645161,33.7142857 C171.645161,30.5583729 174.100374,28 177.129032,28 Z" id="Combined-Shape" fill="#D2D2D2"></path>
                    <path d="M65.3419954,43 L33,43 C33.8118048,41.1064572 35.3436334,39.7412438 37.595486,38.9043595 C39.8473385,38.0674753 43.0064844,37.9289824 47.0729236,38.4888808 L48.3424171,36.6119693 C48.3424171,34.8750626 48.7040701,33.3430529 49.4273763,32.0159401 C50.6636827,30.0053134 52.7588392,29 55.7128457,29 C58.6668523,29 60.5262353,30.678788 61.2909948,34.0363641 C65.6038443,35.2122838 66.9541779,38.2001624 65.3419954,43 Z" id="Path-8" fill="#D2D2D2"></path>
                    <path d="" id="Path-7" stroke="#979797"></path>
                    <g id="Group-2" transform="translate(143.000000, 100.000000) scale(-1, 1) translate(-143.000000, -100.000000) translate(96.000000, 0.000000)" fill-rule="nonzero">
                        <path d="M93.025005,41.3364596 L93.04731,41.3060448 L93.0071611,41.27563 L93.0071611,41.27563 L92.7662677,41.1192111 L92.8153386,41.1539708 C92.4572868,40.9523776 92.0004536,41.0504179 91.7625451,41.3799093 L91.6644034,41.5146034 L91.6644034,41.5146034 L86.2443017,49.1096118 L85.298572,50.4608976 C82.439078,49.6223183 77.7951884,53.1504343 75.4442471,55.1751905 C75.2970345,55.3011947 75.1587438,55.4185089 75.0338361,55.5314781 C74.8464746,55.1230509 74.7349499,54.8623526 74.7349499,54.8623526 C74.6189642,56.1050142 70.1133652,57.9690065 69.0605718,58.6468219 C68.58233,58.9283305 68.0461191,59.1034081 67.4903036,59.1595284 C67.6419772,54.4365455 63.8902854,49.4658993 63.8902854,49.4658993 L54.7229529,38.1038016 C54.3856922,36.048963 54.7130884,33.9428268 55.6597606,32.0773276 C55.7355974,31.9295986 55.8114342,31.7818696 55.896193,31.6428305 L55.9408029,31.6428305 C55.5939786,32.597468 55.3998893,33.5983624 55.3653353,34.6104453 C55.3876403,35.3795051 56.1192425,39.1074898 57.149731,38.9554158 C57.35803,38.9761347 57.5608875,38.8823671 57.6761277,38.7120975 C58.4969497,37.7822738 58.5683255,36.2007045 58.5281766,34.7364495 C58.5139608,35.1668228 58.4647357,35.595421 58.3809639,36.0182158 C58.4478788,34.801624 58.3051271,33.5155128 58.3051271,32.598724 C58.3051271,32.2337465 58.3051271,31.8731139 58.3318931,31.5081364 L58.4434178,31.5081364 C58.4434178,31.6471755 58.4434178,31.7949045 58.4434178,31.9426335 C58.4434178,31.7905595 58.4434178,31.6428305 58.4434178,31.5081364 L58.5594035,31.5081364 C60.6156692,31.1416087 62.5423247,30.2713688 64.1579448,28.9793636 C64.9637311,28.9477138 65.7225648,28.6016529 66.2635316,28.0191252 C66.4622183,28.6645315 66.3128811,29.3640148 65.8665036,29.8787725 C67.0932756,29.8222879 68.132686,28.8924642 68.6055509,27.8018766 C69.0107157,26.6881672 69.1301696,25.4948624 68.953508,24.3259003 C68.7771391,23.1562734 68.6891699,21.9756131 68.6903097,20.7934393 C68.7748706,20.1552982 68.8106569,19.5119215 68.7973734,18.8686174 C68.777649,18.6720764 68.7418474,18.4773826 68.6903097,18.2863913 L68.7259976,18.2863913 C68.9634099,18.2912025 69.1929965,18.2036327 69.363919,18.043073 C69.8724718,17.6607156 70.0375284,16.9133807 70.1668971,16.3398446 C70.5190087,15.0198173 70.6781984,13.6580142 70.6397619,12.2946771 C70.612996,12.7074493 70.5594641,13.1245664 70.4970103,13.5373386 C70.608535,11.9731492 70.3854855,10.4524096 69.3237701,9.3183723 C68.5921679,8.54062259 67.5706014,8.08440069 66.5891838,7.62817879 C66.2382243,7.50595463 65.9292398,7.29077642 65.696986,7.00684801 C65.5235185,6.67222009 65.4290219,6.30406399 65.4204047,5.92929534 C65.0769085,3.64384088 62.8687189,2.05358169 60.6694513,1.14982784 C57.8411843,-0.0493840109 54.4240666,-0.562090525 51.7251683,0.863059785 C50.3868715,1.55391009 49.360844,2.63580773 48.156377,3.51783674 C46.6485627,4.63449414 44.908777,5.41658883 43.2983599,6.38986221 C41.6879428,7.36313559 40.1756676,8.5971072 39.3860725,10.2742658 C38.2039104,12.8812481 39.0916472,15.835828 39.2388598,18.6644038 C39.4752923,23.1179985 37.5927549,27.7888417 33.863368,30.395824 C33.4164035,30.6626964 33.0171099,30.9987725 32.6812059,31.3908222 C32.3455043,31.7973961 32.3063027,32.3649199 32.5830642,32.8116276 C32.7748867,33.0549459 33.0782339,33.193985 33.2879004,33.4242684 C33.7116944,33.8935252 33.6269356,34.6104453 33.461879,35.2100513 C32.9202162,37.1718713 31.8407709,38.9531955 30.3391867,40.3631862 C30.4061015,40.8237531 30.9904911,41.0062419 31.4678169,41.0757614 C32.73068,41.2566786 34.0055132,41.3467184 35.2819625,41.3451496 L35.8306642,41.3451496 C35.7726713,41.4885336 35.7102175,41.6406075 35.6477636,41.8013714 C34.9563103,43.5741194 34.0596515,46.3027608 34.3585378,47.9712295 C34.8046367,50.6042816 36.2321532,62.6441947 35.5273169,64.7558504 C34.8224807,66.867506 36.6604082,82.1791819 36.6604082,82.1791819 C36.6604082,82.1791819 36.9057626,83.3610139 37.3295565,85.1250719 C36.2276922,87.6538447 34.9696933,90.4606956 34.3406938,91.586043 C33.073773,93.8410826 33.6983114,105.355254 38.0656197,110.47363 C38.0656197,110.47363 39.8500153,112.958953 39.4039164,113.858362 C38.9578175,114.75777 39.4842142,116.343685 39.4842142,116.343685 L40.1756676,131.242588 C40.1608698,132.765272 40.0536188,134.28577 39.8544763,135.796117 C37.9897829,138.042467 35.1169059,141.318575 33.7652263,141.853006 C31.6730224,142.682896 16.0684826,161.118605 16.0684826,161.118605 C16.0684826,161.118605 16.1933903,161.340199 16.4387447,161.700831 L15.9926458,162.196158 L12.9993221,165.576545 L12.7628897,165.841588 C12.2008051,165.737309 8.45803527,165.076873 5.49147754,164.868315 L5.19705226,164.868315 L5.19705226,164.816175 C4.15736416,164.700169 3.10605635,164.727963 2.07435992,164.89873 C1.87919921,164.933887 1.69912036,165.024609 1.55688518,165.159428 C0.544240666,166.36733 0,185.328781 0,185.328781 C0,185.328781 1.07955935,194.822541 4.46098907,195.352627 C4.63336071,195.410963 4.81389967,195.443201 4.99630776,195.448217 L5.1435204,195.448217 C7.55245449,195.274418 8.65877978,193.931822 9.15841056,193.010688 C9.30620037,192.735527 9.41857377,192.443658 9.49298474,192.141694 C9.49298474,192.141694 9.1004177,190.451501 10.1532111,188.118252 C11.2060045,185.785003 13.1733007,181.679005 13.1733007,181.679005 C13.1733007,181.679005 16.742092,178.024885 16.1041705,176.252137 C16.2023123,176.108753 16.318298,175.952334 16.4432057,175.774191 C17.7815024,173.914543 20.4937838,170.243043 22.6885904,167.79248 C22.8313421,167.627371 22.9740937,167.475297 23.1346893,167.323223 C23.9331076,167.651471 24.768692,167.886292 25.6239212,168.022763 C25.6239212,168.022763 28.978585,166.745342 30.2232009,163.886351 C30.7540586,162.66976 32.8373405,160.514654 35.0544521,158.442103 L34.9830763,158.993915 L34.9072395,177.129821 C35.62821,177.612095 36.3962406,178.023962 37.2001878,178.359448 L37.2001878,178.793945 C37.2158894,181.378071 37.0549379,183.960349 36.718401,186.523647 L36.6514862,186.92773 C36.3749049,186.736551 36.1340115,186.671376 35.9823378,186.819105 C35.2953455,187.496921 34.8670906,191.824511 34.8269417,193.818853 C34.8269417,193.884027 34.8269417,193.949202 34.8269417,194.018722 C34.7154169,196.008718 33.5510988,198.902468 37.0574362,199.050197 C39.6804978,199.158822 50.9891051,199.32393 57.0382062,199.41083 C60.2972027,199.470897 63.4677027,198.376186 65.9601844,196.330246 C67.8828707,194.726952 69.0471888,192.81951 66.4285882,191.416084 C66.2679926,191.329185 66.098475,191.24663 65.9111135,191.164076 L60.1118277,190.295082 L50.203971,185.367885 C50.203971,185.367885 50.1459781,182.387236 48.954894,182.882562 C48.6010364,182.957701 48.2620517,183.088301 47.9511715,183.269265 C47.8931786,183.16064 47.8307248,183.043326 47.7727319,182.921667 C46.9657588,181.364206 46.5470023,179.643429 46.5504209,177.898881 C46.5504209,177.742462 46.5504209,177.581698 46.5727259,177.420934 C46.8628834,177.163371 47.1369793,176.889149 47.3935479,176.599735 C47.3935479,176.599735 47.3177111,169.825926 48.0983841,168.548505 C48.8790572,167.271083 51.2969133,154.323071 51.2969133,154.323071 C51.2969133,154.323071 51.3727501,151.915958 52.9340963,150.486463 C54.4954425,149.056967 53.9467408,144.91621 53.9467408,144.91621 C53.9467408,144.91621 56.1326254,143.786518 56.8330007,140.101983 C57.533376,136.417448 59.7995585,128.370563 59.7995585,128.370563 C59.7995585,128.370563 64.479136,116.478379 64.1713278,108.957235 C63.8635195,101.436091 64.6174267,97.5169276 64.6174267,97.5169276 L65.5899223,80.0327665 L65.5899223,79.7633783 C65.9780283,80.0501464 66.2412267,80.2847748 66.2412267,80.2847748 C66.2412267,80.2847748 66.2412267,80.2152553 66.2412267,80.0935961 C66.3839783,80.2109103 66.4642761,80.2847748 66.4642761,80.2847748 C66.4642761,80.2847748 66.9639069,72.3508587 66.7943893,69.2051001 C69.5245146,68.3013463 73.6821564,66.8153664 73.9319718,66.0593415 C74.279929,64.9339942 78.9639675,61.3754634 78.9639675,61.3754634 C78.8626572,61.3594307 78.7656174,61.3239872 78.6784642,61.2711841 C78.8256768,61.2060095 78.9773505,61.1278 79.1245631,61.0452456 C82.1937236,59.4462965 87.8948676,54.7711083 86.935755,51.9208076 L93.1811397,43.191762 C93.5842549,42.6147054 93.5192169,41.8418776 93.025005,41.3364596 Z" id="Shape" fill="url(#linearGradient-3)"></path>
                        <path d="M78.8983342,62.2756615 C78.4395356,62.5544668 77.9282356,62.7423191 77.3940258,62.8283463 C75.4316892,62.8849203 73.8016476,57.7366832 73.8016476,57.7366832 C73.8016476,57.7366832 74.3584662,57.1883503 75.2475798,56.4311286 C77.8789969,54.1638154 83.397788,49.9773369 85.9843004,52.3186316 C88.9031077,54.9340927 82.2976222,60.504459 78.8983342,62.2756615 Z" id="Shape" fill="#FFFFFF"></path>
                        <path d="M49.1075602,185.029263 L41.8041866,192.583958 C41.8041866,192.583958 35.0486793,192.657609 36.3708027,189.086432 C36.6349302,188.312318 36.8228993,187.516218 36.9322524,186.708541 C37.2650494,184.172682 37.4238643,181.618628 37.4076735,179.062838 C37.4076735,177.3879 37.3805065,176.211972 37.3805065,176.211972 C37.3805065,176.211972 48.0163556,171.746916 46.9296788,176.398558 C46.7944866,176.980055 46.7216631,177.573271 46.7123434,178.168959 C46.7080652,179.893004 47.1235631,181.594229 47.9257992,183.137364 C48.2540839,183.803582 48.6499074,184.437262 49.1075602,185.029263 Z" id="Shape" fill="#FFFFFF"></path>
                        <path d="M49.1075602,185.211014 L41.8041866,192.85701 C41.8041866,192.85701 35.0486793,192.931669 36.3708027,189.317278 C36.6349302,188.533797 36.8228993,187.728063 36.9322524,186.910612 C37.896678,187.635247 39.2821909,189.769626 39.2821909,189.769626 C39.2821909,189.769626 43.9413176,191.087144 45.2226907,187.13459 C45.9380862,184.938727 47.0700412,183.82762 47.9393826,183.296221 C48.2633524,183.969966 48.6546148,184.611296 49.1075602,185.211014 Z" id="Shape" fill="#000000" opacity="0.1"></path>
                        <path d="M65.9536472,196.377866 C63.5090598,198.396346 60.3852655,199.47538 57.1744735,199.410404 C51.2293101,199.328093 40.1212416,199.159137 37.5420241,199.055164 C34.0911473,198.907869 35.2354795,196.052951 35.3472307,194.086133 C35.3472307,194.016817 35.3472307,193.956167 35.3472307,193.891184 C35.3874611,191.920033 35.7942355,187.648486 36.4826228,186.981327 C37.1710102,186.314169 39.5267253,189.953215 39.5267253,189.953215 C39.5267253,189.953215 44.1264043,191.252875 45.3914278,187.353896 C46.6564513,183.454918 49.2267287,183.078017 49.2267287,183.078017 C50.3934112,182.588478 50.4515218,185.530041 50.4515218,185.530041 L60.1872857,190.3951 L65.9000066,191.261539 C66.0832785,191.343851 66.2486703,191.426163 66.405122,191.508475 C68.9888095,192.912107 67.8444773,194.792281 65.9536472,196.377866 Z" id="Shape" fill="#C1C1C1"></path>
                        <circle id="Oval" fill="#FFFFFF" opacity="0.25" cx="47.9238724" cy="188.44009" r="1"></circle>
                        <circle id="Oval" fill="#FFFFFF" opacity="0.25" cx="51.8524772" cy="190.079102" r="1"></circle>
                        <circle id="Oval" fill="#FFFFFF" opacity="0.25" cx="53.8167796" cy="191.171777" r="1"></circle>
                        <circle id="Oval" fill="#FFFFFF" opacity="0.25" cx="58.0259991" cy="192.81079" r="1"></circle>
                        <circle id="Oval" fill="#FFFFFF" opacity="0.25" cx="55.781082" cy="192.537621" r="1"></circle>
                        <path d="M65.9544856,196.471321 C63.5098319,198.427654 60.3859527,199.473465 57.1750736,199.41049 C51.2297487,199.330712 40.1213786,199.166959 37.5420911,199.066187 C34.0911205,198.923427 35.2354838,196.15641 35.347238,194.250149 L57.0141475,195.509793 C57.0141475,195.509793 65.8874331,194.250149 66.4015025,191.764452 C68.9897304,193.112271 67.8453671,194.934556 65.9544856,196.471321 Z" id="Shape" fill="#646464"></path>
                        <path d="M25.3867355,165.844764 C24.5924672,166.476428 23.8671725,167.18627 23.2223682,167.963017 C21.0802681,170.385118 18.4304769,174.039973 17.1167148,175.854378 C16.6090238,176.56625 16.301737,177.013341 16.301737,177.013341 L13.4337277,176.600976 C13.4337277,176.600976 10.3430469,171.98683 10.3831278,171.878313 C10.4232087,171.769796 12.8325146,166.812736 12.8325146,166.812736 L13.7632816,165.749269 L16.6980924,162.406943 L18.0341215,160.896385 C18.0341215,160.896385 27.9741786,164.021677 25.3867355,165.844764 Z" id="Shape" fill="#FFFFFF"></path>
                        <path d="M17.398107,175.861866 C16.8692011,176.569139 16.5490738,177.013341 16.5490738,177.013341 L13.5612192,176.60364 C13.5612192,176.60364 10.3413882,172.019307 10.3831439,171.911491 C10.4248997,171.803675 12.9348832,166.870018 12.9348832,166.870018 L13.9045441,165.813422 L14.2200318,165.869487 L14.9809141,165.869487 C12.3131867,168.457069 15.1757742,174.14975 15.1757742,174.14975 C15.1757742,174.14975 16.409888,174.257566 17.398107,175.861866 Z" id="Shape" fill="#000000" opacity="0.1"></path>
                        <path d="M13.9183838,181.72458 C13.9183838,181.72458 12.0211865,185.744167 10.9951964,188.053476 C9.96920624,190.362785 10.3495302,192.033996 10.3495302,192.033996 C10.2772932,192.334901 10.1689241,192.626327 10.0266971,192.902157 C9.28572273,194.348672 7.79286577,195.276598 6.14385512,195.315646 L5.95811553,195.315646 C2.49982122,195.22883 1.40307315,185.375199 1.40307315,185.375199 C1.40307315,185.375199 1.9337577,166.618573 2.91994648,165.407488 C3.055567,165.272684 3.22993779,165.181805 3.41967443,165.147039 C4.42601241,164.975789 5.45226456,164.94801 6.46668822,165.064564 C9.59330469,165.285945 13.6132401,166.041246 13.6132401,166.041246 L14.3340867,166.041246 C11.7912232,168.64573 14.5198263,174.379935 14.5198263,174.379935 C14.5198263,174.379935 15.7359783,174.488455 16.6823658,176.164007 C17.6287532,177.839558 13.9183838,181.72458 13.9183838,181.72458 Z" id="Shape" fill="#C1C1C1"></path>
                        <circle id="Oval" fill="#FFFFFF" opacity="0.25" cx="9.76028278" cy="176.420666" r="1"></circle>
                        <circle id="Oval" fill="#FFFFFF" opacity="0.25" cx="9.47966815" cy="179.425522" r="1"></circle>
                        <path d="M5.60886047,195.315646 C2.20598334,195.228389 1.12245852,185.324745 1.12245852,185.324745 C1.12245852,185.324745 1.64463915,166.472919 2.61502483,165.255687 C2.74847211,165.120198 2.92004871,165.028858 3.10674493,164.993916 C3.8203918,166.058449 4.44700856,168.414382 3.88131287,173.597434 C2.81954558,183.418184 4.09888814,184.037708 4.09888814,184.037708 C4.09888814,184.037708 5.69589058,192.383818 5.60886047,195.315646 Z" id="Shape" fill="#646464"></path>
                        <path d="M79.1333256,62.2855871 C78.6533732,62.5593896 78.1184989,62.7438711 77.5596585,62.8283546 C75.506845,62.8839134 73.8016476,57.8280561 73.8016476,57.8280561 C73.8016476,57.8280561 74.3841393,57.2895624 75.314247,56.5459282 C75.9859914,57.9135312 77.8368118,61.6017856 79.1333256,62.2855871 Z" id="Shape" fill="#000000" opacity="0.1"></path>
                        <path d="M66.1674342,60.7825399 C66.1674342,60.7825399 67.7825078,60.8938045 68.8188466,60.234776 C69.8551855,59.5757475 74.301124,57.7570001 74.4177682,56.5459282 C74.4177682,56.5459282 77.0691806,62.7082725 78.5720963,62.9308016 C78.5720963,62.9308016 73.9556778,66.3971203 73.6102315,67.4969276 C73.2647852,68.5967349 64.2607502,71.2970399 64.2607502,71.2970399 L66.1674342,60.7825399 Z" id="Shape" fill="#DFDFDF"></path>
                        <path d="M66.1674342,60.7825399 C66.1674342,60.7825399 67.7825078,60.8938045 68.8188466,60.234776 C69.8551855,59.5757475 74.301124,57.7570001 74.4177682,56.5459282 C74.4177682,56.5459282 77.0691806,62.7082725 78.5720963,62.9308016 C78.5720963,62.9308016 73.9556778,66.3971203 73.6102315,67.4969276 C73.2647852,68.5967349 64.2607502,71.2970399 64.2607502,71.2970399 L66.1674342,60.7825399 Z" id="Shape" fill="#DFDFDF" opacity="0.1"></path>
                        <path d="M25.1130227,165.869801 C24.3312112,166.504662 23.6172916,167.218095 22.9826,167.998772 C19.5809374,166.580912 17.3891445,163.684116 16.5562631,162.414586 L17.8713389,160.896385 C17.8713389,160.896385 27.659886,164.03749 25.1130227,165.869801 Z" id="Shape" fill="#000000" opacity="0.1"></path>
                        <path d="M41.8115798,134.125849 C41.8115798,134.125849 36.2081956,141.450027 34.1592634,142.273507 C32.1103312,143.096986 16.8368778,161.400895 16.8368778,161.400895 C16.8368778,161.400895 20.1196235,167.304679 26.1550652,168.271941 C26.1550652,168.271941 29.4378109,167.004044 30.662716,164.163256 C31.8876212,161.322468 41.5086942,153.296808 41.5086942,153.296808 L41.8115798,134.125849 Z" id="Shape" fill="#5C5C5C"></path>
                        <path d="M41.8115798,134.125849 C41.8115798,134.125849 36.2081956,141.450027 34.1592634,142.273507 C32.1103312,143.096986 16.8368778,161.400895 16.8368778,161.400895 C16.8368778,161.400895 20.1196235,167.304679 26.1550652,168.271941 C26.1550652,168.271941 29.4378109,167.004044 30.662716,164.163256 C31.8876212,161.322468 41.5086942,153.296808 41.5086942,153.296808 L41.8115798,134.125849 Z" id="Shape" fill="#000000" opacity="0.1"></path>
                        <path d="M24.974702,159.010429 C26.6756933,159.15806 28.3907026,159.15806 30.0916939,159.010429 C33.1171991,158.770249 30.8380149,160.292625 24.974702,159.010429 Z" id="Shape" fill="#000000" opacity="0.1"></path>
                        <path d="M23.2910143,160.623216 C23.2910143,160.623216 27.2478007,162.757347 28.7777581,161.690282 C30.3077155,160.623216 27.3049543,162.719979 23.2910143,160.623216 Z" id="Shape" fill="#000000" opacity="0.1"></path>
                        <path d="M46.5070587,176.403865 C46.3770179,176.984705 46.3069692,177.57725 46.2980046,178.172264 C43.271076,180.907215 39.6256957,180.062024 37.3478775,179.065133 C37.3478775,177.392088 37.3217457,176.21749 37.3217457,176.21749 C37.3217457,176.21749 47.552329,171.740146 46.5070587,176.403865 Z" id="Shape" fill="#000000" opacity="0.1"></path>
                        <path d="M65.3832087,78.960494 L65.2711984,81.022089 L64.3123898,98.3542746 C64.3123898,98.3542746 63.5417586,102.233901 63.8643484,109.688698 C64.1869382,117.143495 59.5452294,128.956347 59.5452294,128.956347 C59.5452294,128.956347 57.3050224,136.937416 56.6239995,140.590875 C55.9429766,144.244335 53.7834171,145.375167 53.7834171,145.375167 C53.7834171,145.375167 54.3210667,149.476611 52.7842848,150.894501 C51.2475028,152.312391 51.1713358,154.695838 51.1713358,154.695838 C51.1713358,154.695838 48.7877556,167.52644 48.035046,168.796452 C47.2823365,170.066464 47.3405819,176.777521 47.3405819,176.777521 C42.3494008,182.518672 35.0508065,177.299444 35.0508065,177.299444 L35.1269735,159.323554 C35.1269735,159.323554 37.2014052,142.765553 38.7381872,140.451696 C40.2749691,138.137838 40.2749691,131.800826 40.2749691,131.800826 L39.5894658,117.013014 C39.5894658,117.013014 39.0428553,115.447245 39.5132988,114.551278 C39.9837422,113.655311 38.2005375,111.197924 38.2005375,111.197924 C33.8948597,106.122225 33.2720822,94.7095138 34.5310785,92.4956914 C35.7900748,90.2818689 39.5132988,81.3091465 39.5132988,81.3091465 L44.6523335,78.3994271 L53.9402316,78.6647378 L65.3832087,78.960494 Z" id="Shape" fill="#5C5C5C"></path>
                        <path d="M43.4952676,167.179266 C43.4952676,167.179266 44.7848354,171.337936 45.8221999,171.794105 C46.8595644,172.250275 43.4952676,167.179266 43.4952676,167.179266 Z" id="Shape" fill="#000000" opacity="0.1"></path>
                        <path d="M45.7401846,153.247661 C45.7401846,153.247661 48.747883,155.710619 50.0368966,155.706179 C51.3259102,155.701727 45.7401846,153.247661 45.7401846,153.247661 Z" id="Shape" fill="#000000" opacity="0.1"></path>
                        <path d="M64.5413648,52.2122398 L64.5413648,57.0922657 L61.1905416,55.7041311 L57.8486898,54.3203075 L50.5728729,47.4442993 C50.5728729,47.4442993 44.8177107,43.8532554 41.7405157,40.5812239 C39.9821185,38.7145709 39.0984342,36.9513813 40.6460031,36.0202103 C41.3960403,35.5481867 42.0739281,34.9779583 42.6600856,34.3259964 C44.2066576,32.5738568 45.5512374,30.6659033 46.6703078,28.6355068 C46.7196505,28.5535982 46.7689933,28.4716896 46.8138504,28.3897811 C48.3120766,25.7471522 49.3034178,23.4925112 49.3034178,23.4925112 C49.3034178,23.4925112 53.5199825,24.7858043 56.2293496,26.6309025 C56.4491492,26.7774757 56.6554917,26.9283599 56.8528629,27.0835551 C58.3645461,28.2733847 59.1181449,29.6701412 57.72309,31.03241 C57.3647187,31.3884785 57.0334193,31.7688228 56.7317488,32.1705079 C56.5064692,32.468888 56.2997652,32.7798221 56.1127212,33.1016789 C56.0319785,33.2482521 55.9512357,33.3905144 55.8794644,33.5327766 C54.9460756,35.3676924 54.6234299,37.4343761 54.9554088,39.451748 L64.5413648,52.2122398 Z" id="Shape" fill="#FFFFFF"></path>
                        <path d="M63.6121875,17.5956949 C63.7860575,17.8919991 64.0268007,18.1447291 64.1872962,18.4453907 C64.4577001,19.108856 64.5453217,19.8300398 64.441414,20.5369497 C64.3545084,21.6542512 64.4295535,22.7779501 64.6643243,23.8747292 C64.9006093,24.8595048 65.3419718,25.8094212 65.3776375,26.8203413 C65.4266777,28.2452159 64.6687825,29.5655125 63.9376366,30.7986608 C64.7404072,30.7748003 65.4979372,30.4298038 66.0329939,29.844387 C66.2296468,30.4827434 66.0856597,31.1749476 65.6495881,31.6875733 C66.8488458,31.6309269 67.8786917,30.7071551 68.3245124,29.6265163 C68.7313372,28.5099942 68.849267,27.3124503 68.6677943,26.1405847 C68.4931829,24.9791811 68.4067549,23.8067393 68.4092183,22.632866 C68.4921422,21.9986212 68.5264174,21.3592029 68.5117571,20.7199611 C68.4003019,19.4519535 67.6201156,18.3495276 66.8354712,17.3211778 L65.2840151,15.2383337 C65.176218,15.0680542 65.0217772,14.9306904 64.8381944,14.841809 C63.3714443,14.231771 63.2020324,16.8723641 63.6121875,17.5956949 Z" id="Shape" fill="#464353"></path>
                        <path d="M57.3626847,31.0848677 C57.0040381,31.443004 56.6724844,31.8255571 56.3705821,32.2295748 L56.3705821,32.2295748 C56.1451295,32.5296876 55.9382668,32.8424274 55.7510791,33.1661533 C55.6702744,33.3135777 55.5894696,33.4566661 55.5176432,33.5997545 C51.9144681,33.4047119 48.588671,31.6689978 46.4450668,28.8648297 C46.3956861,28.7997895 46.3463054,28.7347494 46.3014139,28.6653732 C46.3507946,28.5829889 46.4001752,28.5006047 46.4450668,28.4182205 C47.9444436,25.7602454 48.9365462,23.4925112 48.9365462,23.4925112 C48.9365462,23.4925112 53.1563492,24.7933147 55.8677971,26.6491277 C56.0877655,26.7965521 56.2942665,26.9483125 56.4917892,27.104409 C57.9866769,28.3098202 58.7408544,29.6973439 57.3626847,31.0848677 Z" id="Shape" fill="#000000" opacity="0.1"></path>
                        <path d="M68.4699696,21.8494751 C68.4713725,27.5192644 64.3157399,32.3814043 58.5907618,33.408266 C57.8683555,33.5361198 57.1355757,33.6002084 56.40134,33.5997545 L56.3477215,33.5997545 C56.2181434,33.5997545 56.0840972,33.5997545 55.9545192,33.5997545 C49.3553769,33.3615335 44.1792274,27.9999887 44.3407929,21.5700546 C44.5023585,15.1401205 49.9415902,10.0316103 56.5447964,10.1080909 C63.1480027,10.1845714 68.4609702,15.4176172 68.4655011,21.8494751 L68.4699696,21.8494751 Z" id="Shape" fill="#FFFFFF"></path>
                        <path d="M57.9938295,51.0289699 C57.9938295,51.0289699 64.0272825,54.3595282 62.4834284,51.5500481 L54.6088849,40.1558041 L54.6088849,40.1558041 L63.5481554,51.398067 C63.5481554,51.398067 69.2533176,59.0709439 66.1345547,64.3555457 C66.1345547,64.3555457 65.6909185,68.7499721 66.2099729,69.7921285 C66.7290273,70.834285 66.0591366,81.9506206 66.0591366,81.9506206 C66.0591366,81.9506206 63.9252462,80.0139465 62.785101,80.3830436 C61.6449559,80.7521407 53.5973943,81.4121731 53.5973943,81.4121731 L57.9938295,51.0289699 Z" id="Shape" fill="#000000" opacity="0.1"></path>
                        <path d="M65.3832087,79.5702162 L65.2716006,81.7611127 C64.5439159,81.2156997 63.5305144,80.6055766 62.8564015,80.8366838 C61.7090703,81.2341882 53.5973943,81.9506206 53.5973943,81.9506206 L53.9679331,79.2189333 L65.3832087,79.5702162 Z" id="Shape" fill="#000000" opacity="0.1"></path>
                        <path d="M58.0027857,51.0289699 C58.0027857,51.0289699 64.034715,54.3595282 62.4879528,51.5500481 L54.6211824,40.1558041 L54.6211824,40.1558041 L63.5516288,51.398067 C63.5516288,51.398067 69.2511593,59.0709439 66.135475,64.3555457 C66.135475,64.3555457 65.6922767,68.7499721 66.2108188,69.7921285 C66.7293608,70.834285 66.0601313,81.9506206 66.0601313,81.9506206 C66.0601313,81.9506206 63.9327793,80.0139465 62.7937596,80.3830436 C61.6547399,80.7521407 53.5973943,81.4295424 53.5973943,81.4295424 L58.0027857,51.0289699 Z" id="Shape" fill="#808080"></path>
                        <path d="M61.6600692,56.316157 C61.3059072,59.9121188 59.7861486,64.1880444 59.7861486,64.1880444 C59.7861486,64.1880444 58.7102133,74.8015803 57.3159804,77.9573093 C55.9217476,81.1130383 56.5448935,85.4325512 55.7782896,93.4308422 C55.5003396,96.3119704 54.545447,98.2908391 53.2588077,99.6246141 C51.1428017,101.803985 48.1212167,102.279088 45.7362268,102.143967 L45.1713608,102.100379 C41.3248921,101.729886 37.6353306,83.715207 37.6353306,83.715207 C37.6353306,83.715207 35.8690035,68.3898714 36.5593953,66.2802404 C37.2497871,64.1706094 35.8779696,52.2407335 35.4162141,49.6254885 C35.1203319,47.964808 36.0034954,45.2667469 36.6849211,43.4970978 C37.0839138,42.4771522 37.4111774,41.7536011 37.4111774,41.7536011 C37.4111774,41.7536011 38.720232,37.7174063 40.8721026,35.6252103 C41.4715437,35.0268416 42.2948629,34.6902909 43.1539821,34.6924294 C44.1656321,34.7323564 45.1481479,35.0332286 46.0007276,35.564188 C46.0352451,35.5835431 46.0682142,35.6053986 46.099355,35.6295691 C46.099355,35.6295691 60.0954799,49.533955 61.4000515,52.7463476 C61.7631797,53.6486071 61.7990442,54.9300771 61.6600692,56.316157 Z" id="Shape" fill="#000000" opacity="0.1"></path>
                        <path d="M61.3767142,56.1411434 C61.0181676,59.7050966 59.4988263,63.948104 59.4988263,63.948104 C59.4988263,63.948104 58.4231864,74.4842569 57.0383001,77.5983907 C55.6534138,80.7125246 56.2719067,85.0160846 55.5010315,92.9528007 C55.2231578,95.8074234 54.2685274,97.7710578 52.9822414,99.0988899 C50.8668164,101.261483 47.8460611,101.728603 45.461726,101.598847 L44.8970151,101.555596 C41.0516026,101.18363 37.3630542,83.3076361 37.3630542,83.3076361 C37.3630542,83.3076361 35.5972121,68.1046077 36.2874143,66.0285184 C36.9776166,63.9524292 35.5972121,52.084119 35.1355833,49.4846823 C34.8397823,47.8411116 35.7227034,45.1594964 36.403942,43.4034709 C36.8028251,42.3913774 37.1299989,41.6950225 37.1299989,41.6950225 C37.1299989,41.6950225 38.4386941,37.6899003 40.5899738,35.6138111 C41.1876157,35.0182545 42.0121787,34.6852617 42.8712267,34.6924294 C43.8833926,34.7277391 44.8668174,35.0266533 45.7171905,35.5575836 L45.8157908,35.6181362 C45.8157908,35.6181362 59.8080728,49.4154793 61.1122861,52.6031413 C61.4753146,53.4898044 61.5246147,54.7657343 61.3767142,56.1411434 Z" id="Shape" fill="#DFDFDF"></path>
                        <path d="M45.7401846,110.906507 C45.7401846,110.906507 42.5124276,113.769823 41.4000368,113.633474 C40.287646,113.497126 45.7401846,110.906507 45.7401846,110.906507 Z" id="Shape" fill="#000000" opacity="0.1"></path>
                        <path d="M46.0207993,113.131003 C46.0207993,113.131003 42.6847662,114.501912 41.6875338,114.715869 C40.6903014,114.929826 44.7328937,112.778371 46.0207993,113.131003 Z" id="Shape" fill="#000000" opacity="0.1"></path>
                        <path d="M58.9290722,72.1837682 C58.9290722,72.1837682 63.9800283,72.2377832 64.7426953,73.6795694 C65.5053622,75.1213556 60.5548773,71.5937577 58.9290722,72.1837682 Z" id="Shape" fill="#000000" opacity="0.1"></path>
                        <path d="M58.367843,74.8482335 C58.367843,74.8482335 62.3446136,75.6495536 63.5484182,76.5666199 C64.7522227,77.4836862 58.367843,74.8482335 58.367843,74.8482335 Z" id="Shape" fill="#000000" opacity="0.1"></path>
                        <path d="M51.9137065,65.5604965 C51.9137065,65.5604965 51.4778771,80.6732702 49.8130088,82.6290409 C48.1481406,84.5848116 51.9137065,65.5604965 51.9137065,65.5604965 Z" id="Shape" fill="#000000" opacity="0.1"></path>
                        <path d="M47.937271,108.093161 C47.937271,108.093161 44.7522652,121.262083 51.1402205,122.076037 C57.5281757,122.889991 55.5543693,107.082144 55.5543693,107.082144 L47.937271,108.093161 Z" id="Shape" fill="#000000" opacity="0.1"></path>
                        <path d="M47.9308558,108.084552 C47.9308558,108.084552 44.7603513,121.252934 51.1417776,122.075422 C57.5232038,122.897911 55.5562336,107.082144 55.5562336,107.082144 L47.9308558,108.084552 Z" id="Shape" fill="#FFFFFF"></path>
                        <path d="M68.4610378,20.4989306 C68.2841348,20.2443697 68.1344948,19.9729521 68.0144466,19.6889012 C67.1703891,17.9822083 64.9999558,18.8225597 63.410091,19.632589 L62.5615676,20.6938575 C62.1743844,21.134295 61.84856,21.6221802 61.5924647,22.1449796 C61.4294875,22.5696031 61.293762,23.0036036 61.1860666,23.444492 C60.9672369,24.1982091 60.6456912,24.9172726 60.3554069,25.653663 C59.3926248,28.1020395 58.8218236,30.6789136 58.6628262,33.2947957 C57.940791,33.4220546 57.2083877,33.4858451 56.4745291,33.4853908 L56.4209382,33.4853908 L56.4209382,33.4334103 C56.5013246,33.1388542 56.5683133,32.8399664 56.6308361,32.5410785 L56.6308361,32.5410785 C56.9633093,30.8555817 57.0040599,29.128146 56.7514157,27.4296632 C56.7514157,27.3906778 56.7514157,27.3560242 56.7514157,27.3170388 C56.6933588,26.9401802 56.6174383,26.5589899 56.586177,26.1821313 C56.4388018,26.4420338 56.2958927,26.706268 56.1395857,26.9748339 C55.1794146,28.707517 54.1701184,30.4402002 52.356958,31.1982491 C51.6211809,31.478421 50.8455775,31.6478702 50.0570131,31.7007272 C49.0835558,31.7511146 48.1189198,31.9065716 47.1809656,32.1642199 C46.8611524,32.2490472 46.5719888,32.4185315 46.34584,32.6537029 C46.0933834,33.0159912 45.9481865,33.4384919 45.9260442,33.8752445 C45.8292511,34.4515377 45.6797984,35.0183373 45.479453,35.5689423 C44.6594276,37.6243332 43.3779828,39.4769002 41.7280867,40.9922406 L41.3127568,41.3820943 C40.605415,42.0900761 39.7618198,42.6566662 38.8297096,43.0498018 C37.982857,43.3260006 37.0923888,43.4550437 36.1992872,43.4309921 C36.5967534,42.4173725 36.922765,41.7199675 36.922765,41.7199675 C36.922765,41.7199675 38.2268114,37.708806 40.3704493,35.6295862 C40.9659682,35.0331316 41.7876023,34.6996367 42.6435987,34.7069325 C44.2437537,32.8720347 45.6305996,30.8717116 46.7790335,28.7421707 C43.7709321,24.7831279 43.6376701,19.4217475 46.4455798,15.3267004 C49.2534896,11.2316533 54.4026201,9.2779061 59.3299495,10.4379525 C64.257279,11.5979989 67.9100115,15.6239779 68.4699696,20.5119257 L68.4610378,20.4989306 Z" id="Shape" fill="#000000" opacity="0.1"></path>
                        <path d="M69.2506874,10.8892935 C68.5334981,10.1159066 67.5249505,9.66404017 66.5612273,9.21651858 C66.2181212,9.09045399 65.9162462,8.87737349 65.6871528,8.59954707 C65.5199175,8.26747094 65.4282012,7.90445629 65.4182068,7.53505397 C65.0820243,5.26703193 62.9035616,3.69853394 60.7385462,2.77742154 C57.9504726,1.59127208 54.6020947,1.08292232 51.9260819,2.49066013 C50.6261762,3.17714956 49.5996989,4.2503324 48.4253013,5.12365123 C46.9371334,6.22724816 45.2248438,7.00063498 43.6380623,7.96519608 C42.0512809,8.92975717 40.5362184,10.137631 39.7831695,11.8147507 C38.6177368,14.3782239 39.4918113,17.3197008 39.6397316,20.1177969 C39.8683358,24.5321846 38.0170907,29.1420915 34.3414952,31.7533582 C33.8986524,32.0163733 33.5046659,32.3497973 33.1760625,32.7396437 C32.8470855,33.1431096 32.8096201,33.7016774 33.0819314,34.1430366 C33.2657112,34.3863493 33.5705167,34.5253851 33.7722262,34.7513184 C34.1935749,35.2162194 34.1084087,35.9244332 33.9425587,36.5240253 C33.4116014,38.4610223 32.3489446,40.2223082 30.8676093,41.6205575 C30.9303633,42.0811137 31.5041148,42.2592534 31.9747703,42.3287713 C33.2197479,42.5082236 34.4768684,42.5968183 35.7355321,42.5938084 C37.7246104,42.7518602 39.6738447,41.989974 40.9934266,40.5386849 C43.2346433,38.4965961 45.1307127,35.9461576 45.6372277,33.0090256 C45.6636168,32.5717129 45.8089926,32.14897 46.0585764,31.7837723 C46.2888032,31.5517872 46.5778507,31.3824825 46.8967915,31.292802 C48.5687392,30.7366587 50.4827383,31.0103855 52.091932,30.3238961 C54.1897108,29.4549221 55.2296354,27.2824872 56.3278316,25.2925368 C56.3636911,25.6705405 56.43541,26.052889 56.4981641,26.4352376 C56.8182306,28.4799679 56.7115322,30.5661747 56.1843938,32.5701937 C55.8840707,33.7042048 55.4492747,34.8338709 55.4806517,36.0026409 C55.5030639,36.8716148 56.4129979,41.4120038 57.6098076,40.0520595 C58.8066174,38.6921153 58.3673389,35.6854654 58.3673389,33.9996559 C58.3686968,30.8436567 58.9657243,27.7145267 60.1289352,24.7668076 C60.415811,24.0325246 60.7430286,23.3069313 60.9626679,22.550924 C61.0713242,22.1093191 61.2060184,21.6741176 61.3660869,21.247463 C61.6263786,20.7238444 61.9547727,20.2346893 62.3432574,19.7919317 L63.1994022,18.7274386 C64.7951485,17.9062582 66.9736112,17.0720432 67.8207912,18.7839219 C68.1435264,19.4399972 68.3183413,20.1655905 69.1655212,19.5268946 C69.6630713,19.1488909 69.8244389,18.4059182 69.9544295,17.8410851 C70.4878391,15.4731311 70.9271176,12.6880695 69.2506874,10.8892935 Z" id="Shape" fill="#3A3A3A"></path>
                        <path d="M52.9646686,52.0463868 C52.6356764,44.0367522 40.9857466,42.3801846 38.2681808,49.9561627 C38.2461177,50.0068254 38.2280399,50.0590109 38.2140999,50.112279 C36.4339365,55.2424348 37.2090963,68.2347819 37.2090963,68.2347819 C37.2090963,68.2347819 37.4389401,76.9599496 38.2907145,79.8611112 C39.1424889,82.7622729 41.5355692,91.0884766 41.5355692,92.4371482 C41.5355692,93.7858197 43.7573934,98.9073024 44.6902891,99.2802469 C45.6231848,99.6531914 46.0963928,102.550017 46.3262367,103.070404 C46.5560805,103.590792 47.2275852,110.360169 47.2275852,110.360169 C47.2275852,110.360169 55.9616525,109.839781 56.1148817,108.499783 C56.268111,107.159785 54.1814891,100.615909 54.1814891,100.615909 C54.1814891,100.615909 52.6446899,97.9402485 52.4463932,95.7849759 C52.2480965,93.6297034 51.0402895,92.6496398 51.2791469,91.1621982 C51.5180042,89.6747566 50.5806017,88.9332041 50.5806017,87.9661502 C50.5806017,86.9990963 49.8865634,84.3971577 49.8865634,84.3971577 C49.8865634,84.3971577 48.4173653,83.278324 48.6517159,81.9426622 C48.8860665,80.6070003 46.565094,77.9270035 47.1825178,76.9599496 C47.7999415,75.9928957 47.9531708,73.6121219 47.9531708,73.6121219 C47.9531708,73.6121219 48.7283305,62.9051442 49.2691396,60.0039826 C49.8099487,57.1028209 52.9781888,52.4193313 52.9781888,52.4193313 C52.9781888,52.4193313 52.9736821,52.2848978 52.9646686,52.0463868 Z" id="Shape" fill="#000000" opacity="0.1"></path>
                        <path d="M52.4749357,99.3609422 C50.3750069,101.533075 47.3763797,102.002256 45.0095108,101.871928 C44.7336727,100.85537 44.3332625,99.6042211 43.7504433,99.3696308 C42.8250509,98.9960238 40.6361421,93.8567566 40.6361421,92.5187226 C40.6361421,91.1806885 38.2737221,82.8310084 37.4328608,79.9203499 C36.5919995,77.0096914 36.3651004,68.2777159 36.3651004,68.2777159 C36.3651004,68.2777159 35.5998721,55.2449166 37.3572278,50.1186822 C37.3572278,50.0708952 37.3883708,50.018764 37.4106158,49.9666328 C40.0800169,42.3728551 51.5940334,44.0367092 51.9188105,52.0605693 C51.9188105,52.2995039 51.9188105,52.4298319 51.9188105,52.4298319 C51.9188105,52.4298319 48.8045093,57.1216397 48.2572821,60.0279539 C47.7100549,62.9342682 46.9670716,73.660262 46.9670716,73.660262 C46.9670716,73.660262 46.8113565,76.0452643 46.2018433,77.0140357 C45.59233,77.9828071 47.8791169,80.6675637 47.6522178,82.0055978 C47.4253188,83.3436319 48.8712443,84.4644526 48.8712443,84.4644526 C48.8712443,84.4644526 49.5563906,87.0710125 49.5563906,88.0441282 C49.5563906,89.0172438 50.472885,89.7557691 50.2459859,91.2458525 C50.0190868,92.7359359 51.2381133,93.7047073 51.4338693,95.8638077 C51.5973215,97.0743134 51.948357,98.2535065 52.4749357,99.3609422 L52.4749357,99.3609422 Z" id="Shape" fill="#000000" opacity="0.1"></path>
                        <path d="M52.6840401,52.04685 C52.3550482,44.0366834 40.7051286,42.3800057 37.9875651,49.9564871 L37.9334842,50.1082769 C36.1533224,55.2431103 36.9284815,68.2363205 36.9284815,68.2363205 C36.9284815,68.2363205 37.1583252,76.9577309 38.0100988,79.8590853 C38.8618724,82.7604396 41.2549507,91.0915333 41.2549507,92.4359576 C41.2549507,93.7803819 43.4767729,98.9065416 44.4096678,99.2795109 C45.3425627,99.6524802 45.8157703,102.553835 46.045614,103.074257 C46.2754576,103.594679 46.9469617,110.360169 46.9469617,110.360169 C46.9469617,110.360169 55.6810214,109.839747 55.8342505,108.503996 C55.9874796,107.168246 53.9053663,100.619598 53.9053663,100.619598 C53.9053663,100.619598 52.3640617,97.9394235 52.1657652,95.7840078 C51.9674687,93.6285921 50.7326223,92.6614739 50.9669727,91.1739335 C51.2013231,89.6863931 50.2684282,88.9404545 50.2684282,87.9733364 C50.2684282,87.0062182 49.5743904,84.4041067 49.5743904,84.4041067 C49.5743904,84.4041067 48.1051936,83.2895356 48.339544,81.9494482 C48.5738944,80.6093608 46.2529239,77.9335228 46.8703472,76.9664046 C47.4877704,75.9992865 47.6409995,73.6226913 47.6409995,73.6226913 C47.6409995,73.6226913 48.4161585,62.9106656 48.9569672,60.0093113 C49.4977758,57.1079569 52.6660132,52.4241562 52.6660132,52.4241562 C52.6660132,52.4241562 52.6930536,52.2853769 52.6840401,52.04685 Z" id="Shape" fill="#DFDFDF"></path>
                        <path d="M38.4442043,72.9360524 C38.6731159,72.6962127 43.0628323,67.7149284 44.4452787,69.4952763 C45.8277252,71.2756242 38.4442043,72.9360524 38.4442043,72.9360524 Z" id="Shape" fill="#000000" opacity="0.1"></path>
                        <path d="M38.7248189,76.4872459 C38.8976051,76.3142151 43.1672444,76.1456209 44.2221499,73.8252331 C45.2770554,71.5048453 38.7248189,76.4872459 38.7248189,76.4872459 Z" id="Shape" fill="#000000" opacity="0.1"></path>
                        <g id="Group" opacity="0.1" transform="translate(30.867609, 14.204774)" fill="#000000">
                            <path d="M3.07137442,21.0486712 C3.17476935,21.1673903 3.25243758,21.3052254 3.29971275,21.4538952 C3.47121747,20.9386353 3.38683567,20.3750623 3.07137442,19.9288588 C2.8654222,19.6979247 2.56544831,19.5628501 2.37740498,19.3188442 C2.37740498,19.3188442 2.35501887,19.279629 2.3415872,19.2578428 C2.13007158,19.6280459 2.14381841,20.081241 2.37740498,20.4386567 C2.58783442,20.6826625 2.8654222,20.8220944 3.07137442,21.0486712 Z" id="Shape"></path>
                            <path d="M8.93205825,6.53468195 C8.93205825,6.09895726 8.93205825,5.66323258 8.93205825,5.26236587 C8.85146825,3.73732947 8.56044881,2.17307784 8.48433603,0.643684195 C8.39031437,2.51730035 8.8201277,4.48241868 8.93205825,6.38217831 C8.93205825,6.42575078 8.92758103,6.47368049 8.93205825,6.53468195 Z" id="Shape"></path>
                            <path d="M26.8767647,25.2447 C25.8111859,26.4603718 24.9739453,22.9615026 24.7903792,21.5802554 C24.7613331,21.8202919 24.7478747,22.0618726 24.7500842,22.3035583 C24.7769475,23.1750077 25.6813464,27.7283307 26.8767647,26.3645124 C27.687142,25.4407761 27.7722092,23.86781 27.7184825,22.4168468 C27.6602786,23.5279447 27.4811897,24.556255 26.8767647,25.2447 Z" id="Shape"></path>
                            <path d="M25.7664136,12.7089008 C25.8575097,13.294877 25.9128258,13.8855942 25.9320709,14.477943 C25.970957,13.510611 25.9154896,12.5418699 25.7664136,11.5847311 C25.7082098,11.2056506 25.632097,10.8222129 25.5962792,10.4387751 C24.4904053,12.4518232 23.4651214,14.6043031 21.3697815,15.4888242 C19.7445498,16.172912 17.8506848,15.9027627 16.180681,16.4604903 C15.8600578,16.5458177 15.570162,16.7163012 15.3434404,16.9528592 C15.091574,17.3178723 14.9461266,17.742522 14.9225815,18.1816028 C14.4121782,21.1271017 12.513836,23.6848056 10.2797021,25.7327116 C8.96165439,27.1881349 7.0146863,27.9521914 5.02792051,27.7936894 C3.77228591,27.7945367 2.51828044,27.7057007 1.27600832,27.5278973 C1.08338484,27.4989732 0.894340997,27.4507885 0.711878327,27.3841082 C0.537266662,27.575827 0.353700552,27.7588314 0.165657221,27.9374785 C0.228338331,28.3993467 0.805899992,28.5779938 1.27600832,28.6477098 C2.51804196,28.8276189 3.77220853,28.9164662 5.02792051,28.9135018 C7.0146863,29.0720039 8.96165439,28.3079474 10.2797021,26.8525241 C12.5183132,24.804618 14.4121782,22.2469141 14.9225815,19.3014153 C14.9467883,18.8624565 15.0921787,18.4379735 15.3434404,18.0726716 C15.571903,17.8382098 15.8611549,17.668105 16.180681,17.5803027 C17.8506848,17.0225751 19.7624587,17.2970817 21.3697815,16.6086367 C23.4651214,15.7371873 24.503837,13.5585639 25.5962792,11.5629448 C25.632097,11.9420253 25.7082098,12.325463 25.7664136,12.7089008 Z" id="Shape"></path>
                            <path d="M39.2070346,2.97045402 C39.0771952,3.53689611 38.911538,4.27762808 38.4145663,4.6610658 C37.5728485,5.29722384 37.4027141,4.57392086 37.0713997,3.91597659 C36.2252047,2.19922132 34.0492747,3.04452722 32.4553836,3.85933238 L31.6002342,4.92685786 C31.2120704,5.36989213 30.8854209,5.86065382 30.6286769,6.38653556 C30.4647282,6.81308352 30.3301144,7.2497721 30.2257269,7.69370962 C30.0018658,8.45187057 29.6795058,9.17517355 29.3884864,9.91154827 C28.2310637,12.868737 27.6363489,16.0062468 27.6334153,19.1706978 C27.6334153,19.314487 27.6334153,19.4713479 27.6334153,19.632566 C27.7131538,16.6912195 28.3050843,13.7843565 29.3840092,11.035718 C29.6750286,10.2993432 29.9973886,9.57168301 30.2212497,8.81352206 C30.3256372,8.36958455 30.460251,7.93289596 30.6241997,7.506348 C30.8809436,6.98046626 31.2075932,6.48970457 31.5957569,6.0466703 L32.4509064,4.97914482 C34.0447975,4.15562516 36.2207274,3.31903377 37.0669224,5.03578903 C37.3937597,5.69373331 37.5638941,6.42139353 38.4100891,5.78087824 C38.9070607,5.40179777 39.072718,4.65670855 39.2025574,4.09026646 C39.5401434,2.77741351 39.6907927,1.42564749 39.6502796,0.0728848566 C39.5785264,1.04831263 39.4303474,2.01698462 39.2070346,2.97045402 L39.2070346,2.97045402 Z" id="Shape"></path>
                        </g>
                        <path d="M80.4385966,59.0171936 L80.6712403,59.1747632 C80.4610076,59.0354261 80.3165653,58.8169028 80.2710439,58.5693154 C80.2255225,58.3217281 80.2828284,58.0663235 80.4298175,57.8616833 L90.8943975,42.7437561 C91.033869,42.5401709 91.2491884,42.4006464 91.4924075,42.3562524 C91.7356265,42.3118585 91.9865501,42.3662813 92.1893015,42.5074017 L91.9566577,42.3454552 C92.6361501,42.8135352 92.8070426,43.7419378 92.3385447,44.4201215 L82.5192219,58.6320235 C82.0497729,59.3088791 81.1204084,59.4809252 80.4385966,59.0171936 L80.4385966,59.0171936 Z" id="Shape" fill="#464353"></path>
                        <path d="M86.7438963,40.9753103 L86.9905352,40.9753103 L86.9905352,61.1897967 L86.7438963,61.1897967 C86.2601945,61.1897967 85.8680767,60.8493821 85.8680767,60.4294594 L85.8680767,41.7400174 C85.8680767,41.3200947 86.2601945,40.9796801 86.7438963,40.9796801 L86.7438963,40.9753103 Z" id="Shape" fill="#A8A8A8" transform="translate(86.429306, 51.082554) rotate(34.560000) translate(-86.429306, -51.082554) "></path>
                    </g>
                    <path d="" id="Path-15" stroke="#979797"></path>
                </g>
            </g>
        </g>
    </g>
</svg>