<svg id="Layer_1" data-name="Layer 1" xmlns="http://www.w3.org/2000/svg" viewBox="0 0 152 152"><defs><style>.cls-1{fill:#103344;}.cls-2{fill:#bf9e24;}.cls-3{fill:#fec52e;}.cls-4{fill:#fff;}</style></defs><title>Illustration</title><path class="cls-1" d="M34.92,46.05c3.46,3.1,14.24-2.48,14.85-7.72.46-3.77-5.44-10.49-12.37-3.86C37.4,34.47,30.44,42,34.92,46.05Z"/><path class="cls-1" d="M29.54,53.41c1-.75,2.63-3.44-1.54-4.24,0,0-3.2-.8-3.09,2.92S28.51,54.15,29.54,53.41Z"/><path class="cls-1" d="M37.3,123.2l-.07,0Z"/><path class="cls-1" d="M138.3,47.86c-10.07-28.62-33.09-35.79-51.7-26.07C76,27.33,63.85,35.59,52.39,43.48A166,166,0,0,1,27.84,57.06a34.22,34.22,0,0,0-8.55,5.45c-7,6.14-16.14,18.72-6,37.6C14,97,14.79,91.29,15,90A16.7,16.7,0,0,1,31.59,74.87c.26,0,.51,0,.76,0,1.44-1,2.17-2.11,2.29-1.12a2.56,2.56,0,0,1-.27,1.33A16.69,16.69,0,0,1,48.28,91.57l-1.13,17.61c0,2.68,0,5.5.08,8.16,0,.58,0,1.13,0,1.67a36.61,36.61,0,0,1,3.65-6.43c2.36-2.92,2.63-7.06,2.44-10.09l-.56-3.94a.13.13,0,0,1,0,0L51.24,88.25c-.05-.58-.07-1.18-.07-1.75A22.27,22.27,0,0,1,71.69,64.32h.17c2.06-.68,5.24-1.89,6.74-3.26,1.67-1.54,1.65,1.27-.52,3.69a22.28,22.28,0,0,1,17.54,20l.26,18.79c.7,7.26,2.52,18.14,2.24,23.37,0,.08,0,.14,0,.21a79.14,79.14,0,0,0,2.47-7.69,25,25,0,0,0,.32-6.64L97.65,94.3a18.7,18.7,0,0,1-.1-2,17.75,17.75,0,0,1,15.8-17.62c.39,0,.78,0,1.17-.07-1.29-.78-1.27-2.11-.85-2.27a1.87,1.87,0,0,1,2,.85c-.13-1.43.75-2.41,1.15-2.11a2.87,2.87,0,0,1,.94,3.68A17.73,17.73,0,0,1,132.93,90.4l.47,10.19c.37,1.75.94,4,1.59,6.38C145.67,89.52,145.06,67.09,138.3,47.86Z"/><ellipse class="cls-1" cx="24.25" cy="88.69" rx="6.14" ry="6.46"/><path class="cls-2" d="M28.08,96.39A1.94,1.94,0,0,1,30,94.87,1.15,1.15,0,0,1,31.08,96c.34,1.77-2.06,4.8-2.69,4.54s-.37-3.8-.37-3.8S28,96.57,28.08,96.39Z"/><ellipse class="cls-1" cx="37.86" cy="92.11" rx="5.94" ry="6.25"/><circle class="cls-3" cx="24.25" cy="88.36" r="5.48"/><circle class="cls-3" cx="37.99" cy="91.8" r="5.3"/><circle class="cls-1" cx="23.99" cy="88.24" r="0.92"/><circle class="cls-1" cx="37.99" cy="91.83" r="1.03"/><ellipse class="cls-1" cx="64.02" cy="86.28" rx="7.81" ry="8.2"/><circle class="cls-3" cx="64.02" cy="85.89" r="6.96"/><circle class="cls-1" cx="64.02" cy="85.89" r="1.35"/><ellipse class="cls-1" cx="84.19" cy="83.62" rx="7.81" ry="8.2"/><circle class="cls-3" cx="84.19" cy="83.23" r="6.96"/><circle class="cls-1" cx="84.19" cy="83.23" r="1.35"/><ellipse class="cls-1" cx="106.48" cy="91.34" rx="6.3" ry="6.62"/><ellipse class="cls-1" cx="120.65" cy="88.39" rx="6.28" ry="6.61"/><circle class="cls-3" cx="106.48" cy="91.02" r="5.58"/><circle class="cls-1" cx="106.48" cy="91.02" r="0.95"/><circle class="cls-3" cx="120.79" cy="88.06" r="5.57"/><circle class="cls-1" cx="120.77" cy="88.06" r="0.95"/><path class="cls-4" d="M90.12,38a6,6,0,0,1-7.55-.87,5.29,5.29,0,0,0,.53,1,6,6,0,1,0,10-6.49,5.76,5.76,0,0,0-.72-.91A6,6,0,0,1,90.12,38Z"/><path class="cls-3" d="M28.57,96.26a1.74,1.74,0,0,1,1.86-1.35,1.22,1.22,0,0,1,1.08,1c.39,1.64-1.88,4.36-2.51,4.1s-.49-3.51-.49-3.51S28.53,96.42,28.57,96.26Z"/><path class="cls-2" d="M73.2,94.89a2.18,2.18,0,0,1,1.17-2.77,1.87,1.87,0,0,1,2.11.23c1.76,1.37,1.19,5.85.23,6.06s-3.36-3.2-3.36-3.2A2.65,2.65,0,0,1,73.2,94.89Z"/><path class="cls-3" d="M74.29,94.68a2,2,0,0,1,.88-2.53,1.42,1.42,0,0,1,1.72.26c1.48,1.31,1.12,5.43.34,5.6s-2.82-3-2.82-3S74.36,94.86,74.29,94.68Z"/><path class="cls-3" d="M113.33,95.91s1.25-1.6,2.39-.37.51,4.73-.17,4.81-2.15-2.82-2.15-2.82A2.34,2.34,0,0,1,113.33,95.91Z"/><path class="cls-2" d="M112.59,97.27a1.82,1.82,0,0,1,1.23-2.07,1.51,1.51,0,0,1,1.72.37c1.36,1.31.54,5.05-.27,5.15s-2.53-3-2.53-3A3.89,3.89,0,0,1,112.59,97.27Z"/><path class="cls-3" d="M113.33,95.91s1.25-1.6,2.39-.37.51,4.73-.17,4.81-2.15-2.82-2.15-2.82A2.34,2.34,0,0,1,113.33,95.91Z"/><path class="cls-4" d="M122.41,40.34a.26.26,0,0,0-.24-.25h0a1.68,1.68,0,0,1-1.67-1.65v0a.24.24,0,0,0-.24-.25.24.24,0,0,0-.24.24v0a1.68,1.68,0,0,1-1.67,1.66h0a.25.25,0,0,0-.22.24.26.26,0,0,0,.22.25h0A1.69,1.69,0,0,1,120,42.25h0a.24.24,0,0,0,.24.24.23.23,0,0,0,.23-.24s0-.06,0-.08a1.68,1.68,0,0,1,1.67-1.58h0A.26.26,0,0,0,122.41,40.34Z"/><path class="cls-4" d="M103.31,58.16a.19.19,0,0,0-.18-.19h0a1.29,1.29,0,0,1-1.28-1.27v0a.19.19,0,0,0-.37,0v0A1.27,1.27,0,0,1,100.2,58h0a.2.2,0,0,0-.16.19.19.19,0,0,0,.16.19h0a1.29,1.29,0,0,1,1.29,1.28h0a.2.2,0,0,0,.19.19.18.18,0,0,0,.17-.19v-.06a1.29,1.29,0,0,1,1.28-1.21h0A.19.19,0,0,0,103.31,58.16Z"/><path class="cls-4" d="M52.79,55.43a.19.19,0,0,0-.19-.19h0a1.34,1.34,0,0,1-1.34-1.32v0a.19.19,0,0,0-.19-.19.18.18,0,0,0-.19.19v0a1.34,1.34,0,0,1-1.34,1.33h0a.19.19,0,0,0-.17.19.2.2,0,0,0,.17.2h0A1.35,1.35,0,0,1,50.89,57h0a.19.19,0,0,0,.38,0V56.9a1.34,1.34,0,0,1,1.33-1.27h0A.19.19,0,0,0,52.79,55.43Z"/></svg>