<svg width="202" height="175" xmlns="http://www.w3.org/2000/svg">
    <g fill-rule="nonzero" fill="none">
        <path d="M162.714 132.019c-5.198-4.604-21.28 3.816-22.171 11.672-.654 5.643 8.227 15.667 18.547 5.687 0 0 10.366-11.39 3.624-17.36zM170.778 120.97c-1.485 1.129-3.92 5.168 2.331 6.326 0 0 4.797 1.188 4.604-4.455-.193-5.643-5.45-2.985-6.935-1.871z" fill="#FEC52E"/>
        <circle fill="#FEC52E" cx="71.251" cy="85.775" r="2.985"/>
        <path d="m194.746 50.951-.193-.341c-9.282-16.9-26.538-30.666-47.164-39.502l-.49-.223C123.583 1.01 96.006-2.569 70.79 2.718l-2.064.43a100.12 100.12 0 0 0-19.989 6.817C32.018 17.82 20.241 28.825 12.49 41.58c-15.86 26.18-14.776 59.742-4.455 88.492a100.89 100.89 0 0 0 2.762 6.89c.266-.123.554-.188.847-.192a2.465 2.465 0 0 1 2.138 1.277l.342.653a.802.802 0 0 0 1.485 0l.742-1.322a2.376 2.376 0 0 1 4.084-.148l1.07 1.619c.147.239.416.376.697.356a.802.802 0 0 0 .683-.416l.43-.802a2.346 2.346 0 0 1 1.931-1.217 2.376 2.376 0 0 1 2.05 1.158l1.024 1.737c.143.264.43.416.728.387a.757.757 0 0 0 .683-.446l.683-1.381a2.376 2.376 0 0 1 2.139-1.337 2.39 2.39 0 0 1 2.138 1.381l.594 1.292a.787.787 0 0 0 1.381.134l.505-.728a2.39 2.39 0 0 1 4.336 1.055l.193 1.485a.802.802 0 0 0 1.01.668l7.069-2.05.445 1.486-7.068 2.034c-.216.07-.442.106-.668.104-.466 0-.922-.14-1.307-.4a2.39 2.39 0 0 1-1.055-1.694l-.193-1.485a.802.802 0 0 0-1.485-.356l-.505.728a2.302 2.302 0 0 1-2.168 1.01 2.376 2.376 0 0 1-1.96-1.367l-.594-1.307a.802.802 0 0 0-.728-.46.787.787 0 0 0-.727.445l-.683 1.382a2.376 2.376 0 0 1-2.05 1.336 2.346 2.346 0 0 1-2.138-1.158l-1.04-1.738a.787.787 0 0 0-.713-.386c-.287 0-.55.161-.683.416l-.43.802a2.39 2.39 0 0 1-4.099.178l-1.07-1.633a.876.876 0 0 0-.697-.357.846.846 0 0 0-.683.416l-.728 1.322a2.406 2.406 0 0 1-2.094 1.232 2.39 2.39 0 0 1-2.079-1.277l-.341-.653a.772.772 0 0 0-.728-.431 1.099 1.099 0 0 0-.208 0c9.771 21.058 24.8 32.552 40.794 35.64-1.797-5.464-3.668-16.602 3.415-38.046 1.975-5.94 6.118-11.746.297-20.612-1.277-1.93-3.608-4.87-3.86-8.405-.253-3.534-4.456 1.841-9.92-1.307-6.075-3.386-23.152-31.334-17.36-33.606 5.79-2.272 25.245 15.533 25.987 15.637.743.104 11.88-11.88 29.003-10.944 0 0 6.712-19.469 29.27-3.49 0 0 1.069 1.247-2.97 2.688-5.421 1.915-4.693-1.96-7.9 1.604-3.209 3.564 3.34 8.628-5.852 13.365 0 0 4.975 8.554 3.802 23.612 0 0-4.01 12.147 1.485 20.79 5.093 7.945 6.83 18.444 7.262 22.275 10.484-6.638 21.34-14.137 31.809-21.414a247.999 247.999 0 0 1 36.65-20.508 51.1 51.1 0 0 0 12.756-8.227c10.396-9.355 24.028-28.215 8.777-56.416z" fill="#FEC52E"/>
        <path d="M95.977 114.347c1.173-15.058-3.802-23.612-3.802-23.612 9.193-4.678 2.629-9.742 5.851-13.365 3.223-3.624 2.48.312 7.9-1.604 4.07-1.485 2.97-2.688 2.97-2.688-22.557-15.979-29.27 3.49-29.27 3.49-17.151-.832-28.155 11.137-28.972 11.048-.817-.089-20.211-17.82-25.988-15.637-5.777 2.183 11.286 30.22 17.45 33.74 5.479 3.148 9.667-2.228 9.92 1.307.252 3.534 2.583 6.474 3.86 8.405 5.822 8.91 1.678 14.612-.297 20.612-7.083 21.444-5.212 32.581-3.415 38.046a50.49 50.49 0 0 0 33.368-5.376c6.118-3.237 12.593-7.083 19.216-11.286-.43-3.816-2.168-14.315-7.261-22.275-5.54-8.613-1.53-20.805-1.53-20.805z" fill="#FFF"/>
        <circle fill="#103344" cx="64.658" cy="101.709" r="1.381"/>
        <circle fill="#103344" cx="78.32" cy="95.413" r="1.381"/>
        <path d="M75.736 109.892c1.04.252 3.564-.49 3.861-1.574.297-1.084-.163-.58.52-1.485a3.06 3.06 0 0 0-4.38-3.505 6.163 6.163 0 0 0-3.372 2.109c-.579 1.04-.104 4.039 1.485 3.801.98-.178 1.426.654 1.886.654z" fill="#103344"/>
        <path d="M112.639 111.124s-41.358-11.761-64.272 20.449c-1.485 2.05-3.163 5.851-1.767 9.519l-3.802 1.099a.802.802 0 0 1-1.01-.668l-.193-1.485a2.39 2.39 0 0 0-4.336-1.055l-.505.728a.787.787 0 0 1-1.38-.134l-.595-1.292a2.39 2.39 0 0 0-2.138-1.38c-.91-.001-1.74.518-2.139 1.336l-.683 1.38a.757.757 0 0 1-.683.446.743.743 0 0 1-.728-.386l-1.024-1.737a2.376 2.376 0 0 0-2.139-1.173 2.346 2.346 0 0 0-2.049 1.247l-.43.802a.802.802 0 0 1-.684.416.757.757 0 0 1-.698-.357l-1.069-1.618a2.376 2.376 0 0 0-4.084.148l-.742 1.322a.802.802 0 0 1-1.485 0l-.342-.654a2.465 2.465 0 0 0-2.138-1.277c-.293.004-.581.07-.847.193.208.49.431.98.654 1.485.069-.006.138-.006.208 0a.772.772 0 0 1 .727.431l.342.653a2.39 2.39 0 0 0 2.079 1.278 2.406 2.406 0 0 0 2.094-1.233l.727-1.322c.144-.244.4-.4.684-.415a.876.876 0 0 1 .697.356l1.07 1.633a2.39 2.39 0 0 0 4.098-.178l.431-.802a.772.772 0 0 1 .683-.415.787.787 0 0 1 .713.386l1.04 1.737a2.346 2.346 0 0 0 2.138 1.158 2.376 2.376 0 0 0 2.05-1.336l.682-1.381a.787.787 0 0 1 .728-.446c.311 0 .595.179.728.46l.594 1.308a2.376 2.376 0 0 0 1.96 1.366 2.302 2.302 0 0 0 2.168-1.01l.505-.728a.802.802 0 0 1 1.485.357l.193 1.485a2.39 2.39 0 0 0 1.054 1.693c.386.26.841.4 1.307.4.227.002.453-.033.668-.103l4.084-1.174a11.954 11.954 0 0 0 4.886 4.173s5.287.193 13.365-7.885c0 0 3.505-2.97-1.396-7.752-5.984-6.118 35.374-18.117 35.552-11.85a16.023 16.023 0 0 0 1.247 6.49 3.371 3.371 0 0 0 2.257 1.9c3.52.891 13.366 2.88 17.33-1.381 4.975-5.48-3.771-13.9-7.87-15.207z" fill="#EA4CB5"/>
        <path d="M105.808 124.95a3.906 3.906 0 0 1-2.643-1.827 14.167 14.167 0 0 1-1.485-6.504c-.134-6.267-43.764 6.267-40.794 12.994 3.55 8.167 0 9.207 0 9.207-5.51 4.678-9.504 5.673-11.88 5.688a13.989 13.989 0 0 0 3.252 2.242s5.287.193 13.365-7.886c0 0 3.505-2.97-1.396-7.751-6.088-6.015 35.27-18.014 35.448-11.747a16.023 16.023 0 0 0 1.247 6.49 3.356 3.356 0 0 0 2.257 1.856c3.52.876 13.366 2.866 17.33-1.396.134-.163.238-.327.357-.49-5.287.965-12.103-.238-15.058-.876z" fill="#E51FA3"/>
        <path d="M71.504 113.129a4.455 4.455 0 0 0 5.94 1.693c.356-.208 1.07-.861 1.336-.995 1.485-.876 1.174.119 2.97-.58a4.841 4.841 0 0 0 2.97-4.306c.342-2.123-13.216 4.188-13.216 4.188z" fill="#FFF"/>
    </g>
</svg>
