<svg width="212" height="181" viewBox="0 0 212 181" xmlns="http://www.w3.org/2000/svg">
    <g fill="none" fill-rule="evenodd">
        <path d="M-15-19h243v220H-15z"/>
        <path d="M32.16 56.474c1.586-1.113 4.113-5.165-2.38-6.363 0 0-4.952-1.213-4.775 4.38.176 5.592 5.568 3.095 7.155 1.983zM41.38 44.601c5.49 4.87 22.625-3.898 23.576-12.144.769-5.975-8.598-16.431-19.61-6.065 0 0-11.072 11.95-3.967 18.21zM204.227 47.544c-15.88-45.114-52.18-56.408-81.513-41.1-16.719 8.732-35.82 21.763-53.932 34.195a262.636 262.636 0 0 1-38.711 21.404 54.143 54.143 0 0 0-13.483 8.598C5.62 80.317-8.881 100.133 7.074 129.909c0 .12.135.255.195.36 9.693 17.854 27.805 32.428 49.438 41.849l.525.24A143.241 143.241 0 0 0 85.157 181c-12.165-9.511-21.409-25.987-20.435-50.282a96.219 96.219 0 0 1 7.61-33.94c0 .164.255.24.285 0a4 4 0 0 1 3.386-3.715c.764 0 1.498.48 2.232.255 1.019-.3 2.068-1.813 2.727-2.607a16.895 16.895 0 0 0 1.438-2.336c.03.499.03.999 0 1.498-.21.958-.734 1.797-.929 2.74-.24.71-.093 1.494.39 2.068.24.27.943.419 1.078.659.36.704-1.018 1.632-1.333 2.112a3.804 3.804 0 0 0-.794 2.696c0 .374.42.374.404 0 0-2.367 2.188-2.532 2.757-4.314.15-.48.048-1.003-.27-1.393-.614-.824-1.153-.255-1.063-1.752.152-.564.347-1.115.584-1.648a7.892 7.892 0 0 0 .195-3.864c.51-.615 1.048-1.214 1.588-1.828a6.32 6.32 0 0 0 1.782-4.314c0-1.602 0-3.1 1.499-3.969.854-.464 1.797-.734 2.681-1.123a5.44 5.44 0 0 1 4-.69 6.758 6.758 0 0 0 2.128 0 6.217 6.217 0 0 0 3.67-2.38c.45-.585.66-1.379 1.213-1.813.944-.749 3.491-.884 4.645-1.138.404-.09.494-.57.434-.929-.06-.36-.165-.884-.24-1.333a9.814 9.814 0 0 0 4.645-1.273c.436-.348.76-.817.928-1.348.435-.929.435-1.603 1.349-2.007a4.84 4.84 0 0 1 1.498-.3c.06.375.176.739.344 1.079a16.103 16.103 0 0 0 5.424 5.751 9.529 9.529 0 0 0 2.501 1.124 33.952 33.952 0 0 1-3.146 6.875c-.509.853-1.288 2.696-2.172 3.19-1.183.689-2.217-.614-3.296-.824-1.078-.21-1.902.48-2.472 1.498-1.333 2.351-2.322 4.928-3.505 7.354a6.323 6.323 0 0 0-3.865-.464c-1.813.39-2.997 2.097-4.24 3.34-.854.869-2.068 1.737-2.262 2.996-.01.756.1 1.51.33 2.231.599 3.7-1.499 3.13-3.79 3.34-.21 0-.346.255-.36.45-.015.195 0 .36 0 .54a10.812 10.812 0 0 0-.884 6.919c0 .345.434.225.404-.09a.135.135 0 0 0 0-.105c.098-1.305.263-2.605.494-3.894 0-.21 0-.524.135-.839.17-.445.365-.88.585-1.303a.839.839 0 0 0 0-.18c.088-.077.19-.137.3-.18.314-.104.943.18 1.303.18a2.996 2.996 0 0 0 2.846-2.576 5.556 5.556 0 0 0 0-2.277 3.744 3.744 0 0 1 1.348-3.999 11.76 11.76 0 0 1 3.281-2.816 6.128 6.128 0 0 1 4.495.27 346.482 346.482 0 0 1 6.322 7.04c2.457 2.71-.794 3.295-1.498 5.632-.09.329-.09.988.33 1.123 4.493 1.498-1.619 4.673-2.727 5.811a3.34 3.34 0 0 0-.824 3.655 8.553 8.553 0 0 0 1.812 2.576c1.019 1.139 2.502 1.888 3.476 2.996 1.288 1.498.374 2.411 0 3.924a7.697 7.697 0 0 0-.18 3.25 4.824 4.824 0 0 0-3.895 3.22c-1.348 3.101 0 6.561-.285 9.797 0 .404.42.734.51.194.614-3.46-1.588-12.087 4.344-11.653.05.009.1.009.15 0 .563.768 1.064 1.58 1.498 2.427.18.404.614.254.644-.15l.555-.464c.345-.03.68.124.884.404.25.237.458.516.614.824.428.742.741 1.545.929 2.381 0 .345.42.225.39-.09a6.305 6.305 0 0 0-1.829-4.268 1.349 1.349 0 0 0-1.857 0 5.212 5.212 0 0 0-1.498-2.172 8.356 8.356 0 0 1 .314-4.808c.214-.411.384-.843.51-1.288a2.157 2.157 0 0 0-.42-1.723c-1.678-2.291-8.659-5.572-4.075-8.687 1.379-.944 3.071-1.782 3.566-3.52a3.385 3.385 0 0 0-1.588-3.88c1.049-1.662 3.4-2.426 2.322-4.942a15.548 15.548 0 0 0-3.101-3.7c-1.498-1.662-2.996-3.295-4.495-4.943.51-.988 1.034-1.947 1.499-2.995a17.883 17.883 0 0 1 1.872-3.655c1.828-1.947 2.996.884 4.9 0 1.497-.614 2.68-3.355 3.37-4.673a34.536 34.536 0 0 0 2.771-6.995.51.51 0 0 0 0-.15 8.121 8.121 0 0 0 3.176-.075c1.499-.33 1.693-.689 2.997.315 1.303 1.004.764.959 1.228 1.977a3.1 3.1 0 0 0 1.303 1.498c.89.392 1.862.562 2.832.494a8.241 8.241 0 0 1 4.494 1.124c1.498.928 2.892 2.082 4.315 3.115 1.034.764 3.55 1.947 4.18 2.996 1.498 2.576-1.933 4.493-1.753 7.024.15 2.337 2.067 4.12 3.88 5.318.345.224.42-.45.225-.644-1.768-1.708-4.24-3.73-2.772-6.56.45-.87 1.274-1.499 1.678-2.412a3.58 3.58 0 0 0 .255-.84 97.688 97.688 0 0 1 13.483 47.092c.854 23.366-6.427 38.42-16.794 47.571a103.608 103.608 0 0 0 13.678-5.122c17.648-8.163 30.112-19.697 38.352-33.117 16.749-27.35 15.775-62.684 5.123-93.03zm-88.719 12.372a17.681 17.681 0 0 0-7.04-.734c-1.2.016-2.39.228-3.521.63l-.225.104c-.362.15-.7.352-1.004.6a6.29 6.29 0 0 0-1.228 1.692 5.737 5.737 0 0 1-1.498 1.902c-.375.225-1.034.225-1.498.42a7.834 7.834 0 0 0-3.551 3.984c-.09.18 0 .659.255.374a13.63 13.63 0 0 1 1.767-2.456c1.08-1.034 1.888-.704 3.132-.974 1.243-.27 1.498-.839 2.097-1.827 1.213-2.202 2.996-2.427 5.258-2.547a25.024 25.024 0 0 1 4.974.105 2.906 2.906 0 0 0-1.333 1.019c-.51.689-.63 1.498-1.169 2.157-1.063 1.393-3.16 1.498-4.824 1.737-.434 0-.524.63-.45.959l.27 1.498-4.599 1.033a.464.464 0 0 0-.39.36 4.959 4.959 0 0 1-5.497 3.594 9.8 9.8 0 0 0-2.352-.404c-.958.264-1.875.657-2.727 1.168a9.439 9.439 0 0 0-4.09 2.277c-1.123 1.498-.524 2.8-.719 4.493-.315 2.472-2.757 4.03-3.985 6.082-.749 1.273-2.052 3.774-3.55 4.388-.66.255-1.499-.135-2.203 0a3.715 3.715 0 0 0-1.498.884c7.88-16.162 19.52-27.83 30.412-32.518l.225-.105a25.322 25.322 0 0 1 9.108-2.127h1.843a8.386 8.386 0 0 1-.39 2.232zm20.195 13.615a5.799 5.799 0 0 1-2.097-.24c-1.109-.524-1.154-1.497-1.498-2.53a3.205 3.205 0 0 0-1.004-1.498c-1.768-1.289-4.494.254-6.592-.21a13.663 13.663 0 0 1-7.31-5.602c-1.23-1.827-.54-3.73-.72-5.617 7.925.734 17.079 5.902 25.214 14.829a14.039 14.039 0 0 0-2.997 1.363 10.699 10.699 0 0 0-2.996-.45v-.045zm6.202 2.082a14.098 14.098 0 0 0-1.797-1.093 21.845 21.845 0 0 1 2.352-1.019c1.498 1.723 2.996 3.55 4.39 5.512-1.619-1.123-3.417-2.261-4.945-3.355v-.045z" fill="#FFC602" fill-rule="nonzero"/>
        <path d="M76 68c-3.04 2.294-5.454 5.399-7 9M68 67s-5.956 5.937-7 13M174 115c-.3-3.94-1.68-7.734-4-11M179 108s-2.356-8.15-8-13" stroke="#FFF"/>
    </g>
</svg>
