<svg id="Layer_1" data-name="Layer 1" xmlns="http://www.w3.org/2000/svg" viewBox="0 0 152 152"><defs><style>.cls-1{fill:#fec52e;}.cls-2{fill:#fff;}.cls-3{fill:#5d10a0;}.cls-4{fill:#280745;}</style></defs><title>Illustration</title><path class="cls-1" d="M45.42,27.49s-2.42-2.15-4,1.14,2.2,3.42,3.43,3.24S48.68,30.07,45.42,27.49ZM60.25,19s-9.48,3.43-7.41,8.94c1.6,4.26,13.5,4.3,16.41,0C71.35,24.88,69.28,16.36,60.25,19Zm81.59,57.39c4.22-29.43-12.52-46.1-33.1-46.09-11.72,0-26,1.67-39.55,3.32a162.51,162.51,0,0,1-27.48.67,33.39,33.39,0,0,0-9.91.86C23,37.31,9.3,44.07,9.51,65.06v.26c.21,12.62,6,25.86,15.23,37.29.07.09.14.19.22.28,10.47,12.84,25.34,23.35,41.56,28,.43.14.88.26,1.33.38a65.27,65.27,0,0,0,13.65,2.17c12.08.57,22.26-2.2,30.66-7.23C129.35,115.91,139,96.14,141.84,76.37Z"/><path class="cls-2" d="M142.15,55.71a39.92,39.92,0,0,0-20.74,12.08,5.25,5.25,0,0,1-.59-.55,10.27,10.27,0,0,0-1.3-1.2c-3.08-2.12-6.46-4.35-6.74-4.74,0,0,13.24-2.31,25.58-14,.55-.52,0,.16.56-.25A51.57,51.57,0,0,0,142.15,55.71Z"/><ellipse class="cls-3" cx="87.13" cy="79.37" rx="24.95" ry="40.19" transform="translate(1.86 160.72) rotate(-85.98)"/><path class="cls-4" d="M87.24,103.76c-20.94,0-38.14-10.91-40-24.85a19.31,19.31,0,0,0-.17,2.53c0,15.13,18,27.39,40.19,27.39s40.19-12.26,40.19-27.39a19.31,19.31,0,0,0-.17-2.53C125.38,92.85,108.19,103.76,87.24,103.76Z"/><path class="cls-2" d="M104.84,78.9c0,2.75-2.19,5.23-5.71,7a12.79,12.79,0,0,1-3.43,1.37c-.45.11-1.58,0-2.66.18-1.27.16-1.24.72-2.26.9a21.63,21.63,0,0,1-4.69.29c-6.94,0-12.53-1.62-15.8-4.5-.64-.57-.63-1.09-1-1.49-.17-.21-.89-.48-1.06-.69a4,4,0,0,1-1-3.06c0-2.68,2.59-4.78,6-6.54a28.39,28.39,0,0,1,13-2.69c5.18,0,8.67.66,12.06,2.42.55.29,1.43.34,2.53.83a3.5,3.5,0,0,1,1.31,1A6.69,6.69,0,0,1,104.84,78.9Z"/><path class="cls-2" d="M81.8,88.27S85,90.82,81.32,92c0,0-.76.32-.28.59s6.66-.82,6-4.28C87.08,88.31,81.8,88.36,81.8,88.27Z"/><path class="cls-1" d="M91.59,77c0,1.83-2.56,2.63-5.71,2.63s-5.72-.8-5.72-2.63,2.56-3.3,5.72-3.3S91.59,75.13,91.59,77Z"/><path class="cls-2" d="M78.41,58.5a.42.42,0,0,1-.16,0,.34.34,0,0,1-.16-.47l.64-1.31a1.52,1.52,0,0,0-.46-1.91,2.23,2.23,0,0,1-.61-2.9l.5-.87a1.54,1.54,0,0,0-.41-2A2.25,2.25,0,0,1,77.16,46l.53-.81a1.52,1.52,0,0,0-.3-2l-.6-.49a.36.36,0,1,1,.45-.55l.6.5a2.21,2.21,0,0,1,.44,2.94l-.52.81a1.51,1.51,0,0,0,.36,2,2.26,2.26,0,0,1,.65,2.94l-.5.87a1.53,1.53,0,0,0,.42,2A2.24,2.24,0,0,1,79.37,57l-.65,1.31A.35.35,0,0,1,78.41,58.5Z"/><path class="cls-2" d="M84.78,63.84a.41.41,0,0,1-.16,0,.36.36,0,0,1-.16-.48l1.6-3.23a1.52,1.52,0,0,0-.46-1.9A2.23,2.23,0,0,1,85,55.29l.5-.87a1.53,1.53,0,0,0-.41-2,2.25,2.25,0,0,1-.58-3.06l.52-.8a1.52,1.52,0,0,0-.3-2l-.6-.5a2.23,2.23,0,0,1-.38-3l1.64-2.27a.36.36,0,0,1,.5-.07.34.34,0,0,1,.07.49L84.3,43.47a1.53,1.53,0,0,0,.26,2.07l.6.49A2.24,2.24,0,0,1,85.61,49l-.53.8a1.53,1.53,0,0,0,.36,2.06,2.24,2.24,0,0,1,.65,2.93l-.49.87a1.52,1.52,0,0,0,.42,2,2.23,2.23,0,0,1,.67,2.79L85.1,63.65A.37.37,0,0,1,84.78,63.84Z"/><path class="cls-2" d="M90.92,59.38a.41.41,0,0,1-.16,0,.35.35,0,0,1-.16-.48l.8-1.62a1.51,1.51,0,0,0-.46-1.9,2.23,2.23,0,0,1-.61-2.91l.49-.87a1.52,1.52,0,0,0-.41-2,2.26,2.26,0,0,1-.58-3.05l.53-.8a1.52,1.52,0,0,0-.3-2,.34.34,0,0,1,0-.5.36.36,0,0,1,.5,0,2.23,2.23,0,0,1,.44,3l-.52.8a1.51,1.51,0,0,0,.36,2,2.26,2.26,0,0,1,.65,2.94l-.5.87a1.54,1.54,0,0,0,.42,2A2.23,2.23,0,0,1,92,57.56l-.8,1.63A.37.37,0,0,1,90.92,59.38Z"/><path class="cls-2" d="M106.45,48.19a.22.22,0,0,0-.21-.23h0a1.56,1.56,0,0,1-1.56-1.55v0a.22.22,0,0,0-.22-.23.22.22,0,0,0-.23.22v0A1.56,1.56,0,0,1,102.67,48h0a.23.23,0,0,0-.2.23.24.24,0,0,0,.2.23h0A1.56,1.56,0,0,1,104.24,50h0a.23.23,0,0,0,.23.22.22.22,0,0,0,.21-.23v-.07a1.57,1.57,0,0,1,1.56-1.47h0A.23.23,0,0,0,106.45,48.19Z"/><path class="cls-2" d="M68,117.24a.25.25,0,0,0-.24-.25h0a1.73,1.73,0,0,1-1.72-1.7,0,0,0,0,0,0,0,.25.25,0,0,0-.25-.25.24.24,0,0,0-.25.24v0a1.71,1.71,0,0,1-1.71,1.7h0a.25.25,0,0,0-.22.25.26.26,0,0,0,.22.25h0a1.72,1.72,0,0,1,1.72,1.72h0a.26.26,0,0,0,.25.24.24.24,0,0,0,.24-.25v-.08a1.71,1.71,0,0,1,1.71-1.62h0A.25.25,0,0,0,68,117.24Z"/><path class="cls-2" d="M38.74,72.69a.17.17,0,0,0-.15-.17h0a1.09,1.09,0,0,1-1.1-1.09h0a.17.17,0,0,0-.16-.17.16.16,0,0,0-.16.16v0a1.11,1.11,0,0,1-1.1,1.09h0a.16.16,0,0,0,0,.32h0a1.11,1.11,0,0,1,1.11,1.09h0a.16.16,0,0,0,.16.16.15.15,0,0,0,.15-.16v0a1.1,1.1,0,0,1,1.1-1h0A.16.16,0,0,0,38.74,72.69Z"/></svg>