<svg width="202" height="164" xmlns="http://www.w3.org/2000/svg">
    <g fill-rule="nonzero" fill="none">
        <path d="M39.372 42.416c5.164 4.625 21.253-3.7 22.164-11.52.686-5.625-8.12-15.653-18.463-5.76 0 0-10.388 11.236-3.701 17.28zM31.307 53.67c1.52-1.087 3.999-4.985-2.342-6.145 0 0-4.866-1.159-4.7 4.232.168 5.39 5.475 2.985 7.042 1.913z" fill="#091E42"/>
        <path d="M42.975 157.977h-.115.115z" fill="#103344"/>
        <path d="M194.244 45.193C179.142 2.311 144.62-8.432 116.711 6.132c-15.897 8.3-34.118 20.677-51.305 32.499A249.014 249.014 0 0 1 28.59 58.978a51.325 51.325 0 0 0-12.822 8.166c-10.498 9.2-24.205 28.048-8.998 56.337 1.065-4.66 2.25-13.216 2.564-15.149 1.213-12.83 11.981-22.641 24.88-22.67h1.14c2.16-1.497 3.254-3.16 3.434-1.677a3.833 3.833 0 0 1-.405 1.993c12.063 2.035 20.885 12.484 20.86 24.707l-1.694 26.385c0 4.016 0 8.241.12 12.227v2.502a54.84 54.84 0 0 1 5.474-9.634c3.54-4.375 3.944-10.579 3.66-15.118l-.84-5.904-2.28-15.433a30.897 30.897 0 0 1-.105-2.622c.016-17.399 13.412-31.865 30.773-33.232h.255c3.09-1.02 7.859-2.832 10.108-4.885 2.505-2.307 2.475 1.903-.78 5.529 14.43 3.09 25.122 15.27 26.305 29.966l.39 28.154c1.05 10.878 3.779 27.18 3.359 35.016v.314a118.5 118.5 0 0 0 3.704-11.522c.603-3.28.764-6.626.48-9.949l-4.889-27.704a27.994 27.994 0 0 1-.15-2.996c.017-13.545 10.22-24.913 23.695-26.4.585 0 1.17 0 1.755-.106-1.935-1.168-1.905-3.161-1.275-3.4a2.805 2.805 0 0 1 3 1.273c-.196-2.143 1.124-3.611 1.724-3.162a4.298 4.298 0 0 1 1.41 5.514c12.06 1.685 21.432 11.34 22.75 23.434l.705 15.268c.555 2.622 1.41 5.993 2.384 9.559 16.017-26.146 15.102-59.753 4.964-88.566z" fill="#091E42"/>
        <ellipse fill="#103344" cx="23.435" cy="106.512" rx="9.098" ry="9.65"/>
        <path d="M29.206 118.055c.29-1.335 1.461-2.279 2.804-2.26.877.054 1.564.786 1.578 1.68.496 2.632-3.01 7.138-3.93 6.75-.92-.386-.54-5.65-.54-5.65s-.03-.252.088-.52z" fill="#BF9E24"/>
        <ellipse fill="#103344" cx="43.928" cy="111.291" rx="9.006" ry="9.282"/>
        <circle fill="#FEC52E" cx="23.435" cy="105.961" r="8.179"/>
        <circle fill="#FEC52E" cx="44.02" cy="110.924" r="7.995"/>
        <circle fill="#103344" cx="22.791" cy="105.685" r="1.287"/>
        <circle fill="#103344" cx="43.928" cy="111.016" r="1.47"/>
        <ellipse fill="#103344" cx="82.894" cy="102.836" rx="11.763" ry="12.223"/>
        <circle fill="#FEC52E" cx="82.894" cy="102.009" r="10.477"/>
        <circle fill="#103344" cx="82.802" cy="102.101" r="1.93"/>
        <ellipse fill="#103344" cx="113.221" cy="98.609" rx="11.763" ry="12.223"/>
        <circle fill="#FEC52E" cx="113.221" cy="98.15" r="10.477"/>
        <circle fill="#103344" cx="113.129" cy="98.058" r="1.93"/>
        <ellipse fill="#103344" cx="146.581" cy="110.28" rx="9.466" ry="9.925"/>
        <ellipse fill="#103344" cx="167.718" cy="105.869" rx="9.466" ry="9.925"/>
        <circle fill="#FEC52E" cx="146.581" cy="109.637" r="8.363"/>
        <circle fill="#103344" cx="146.673" cy="109.729" r="1.47"/>
        <circle fill="#FEC52E" cx="168.27" cy="105.41" r="8.363"/>
        <circle fill="#103344" cx="168.178" cy="105.502" r="1.47"/>
        <path d="M121.89 30.317c-3.637 2.301-8.416 1.759-11.426-1.296.213.523.482 1.023.802 1.49 1.554 3.08 4.765 5.01 8.257 4.962 3.493-.048 6.648-2.065 8.114-5.186a8.833 8.833 0 0 0-1.238-9.448 8.606 8.606 0 0 0-1.09-1.356c1.63 3.952.199 8.489-3.42 10.834z" fill="#FFF"/>
        <path d="M29.702 117.84a2.615 2.615 0 0 1 2.795-2.034 1.835 1.835 0 0 1 1.623 1.506c.586 2.47-2.825 6.568-3.772 6.176-.947-.392-.736-5.287-.736-5.287l.09-.362z" fill="#FEC52E"/>
        <path d="M96.706 115.67a3.257 3.257 0 0 1 1.745-4.136 2.786 2.786 0 0 1 3.147.344c2.624 2.046 1.774 8.735.343 9.049-1.432.314-5.011-4.778-5.011-4.778a3.96 3.96 0 0 1-.224-.478z" fill="#BF9E24"/>
        <path d="M98.563 115.318c-.581-1.435-.026-3.095 1.286-3.845a2.015 2.015 0 0 1 2.512.395c2.162 1.991 1.636 8.253.497 8.511-1.14.259-4.12-4.559-4.12-4.559s-.072-.228-.175-.502zM157.13 117.383s1.835-2.34 3.508-.54c1.674 1.799.749 6.92-.25 7.036-.997.117-3.155-4.125-3.155-4.125a3.413 3.413 0 0 1-.103-2.37z" fill="#FEC52E"/>
        <path d="M155.727 119.265a2.727 2.727 0 0 1 1.828-3.1 2.235 2.235 0 0 1 2.558.555c2.022 1.96.803 7.56-.401 7.71-1.205.15-3.762-4.492-3.762-4.492a5.851 5.851 0 0 1-.223-.673z" fill="#BF9E24"/>
        <path d="M157.13 117.383s1.835-2.34 3.508-.54c1.674 1.799.749 6.92-.25 7.036-.997.117-3.155-4.125-3.155-4.125a3.413 3.413 0 0 1-.103-2.37z" fill="#FEC52E"/>
        <path d="M170.567 33.911a.39.39 0 0 0-.36-.374 2.52 2.52 0 0 1-2.51-2.468.358.358 0 0 0-.362-.374c-.199 0-.36.16-.36.359a2.52 2.52 0 0 1-2.51 2.483.375.375 0 0 0-.331.36.39.39 0 0 0 .33.373 2.534 2.534 0 0 1 2.48 2.499c0 .198.162.359.361.359a.346.346 0 0 0 .346-.36v-.119a2.52 2.52 0 0 1 2.51-2.364.392.392 0 0 0 .406-.374zM141.888 60.778a.276.276 0 0 0-.263-.276 1.877 1.877 0 0 1-1.868-1.84.277.277 0 0 0-.54 0c.012.498-.18.98-.532 1.334a1.86 1.86 0 0 1-1.336.55.29.29 0 0 0-.234.275.276.276 0 0 0 .234.276c1.034 0 1.875.828 1.883 1.855a.29.29 0 0 0 .277.275.263.263 0 0 0 .248-.275v-.087a1.877 1.877 0 0 1 1.868-1.754.274.274 0 0 0 .263-.333zM66.168 56.75a.284.284 0 0 0-.286-.283c-1.102 0-2-.874-2.016-1.963a.284.284 0 0 0-.286-.282.273.273 0 0 0-.207.078.266.266 0 0 0-.08.204 2.005 2.005 0 0 1-2.015 1.978.284.284 0 0 0-.256.283.299.299 0 0 0 .256.297c.541 0 1.06.214 1.441.594.382.38.594.894.59 1.429 0 .156.128.283.286.283a.284.284 0 0 0 .286-.283v-.149a2.006 2.006 0 0 1 2.001-1.889.287.287 0 0 0 .208-.087.28.28 0 0 0 .078-.21z" fill="#FFF"/>
    </g>
</svg>
